<svg xmlns="http://www.w3.org/2000/svg" viewBox="0 0 24 24" fill="currentColor">
  <path fill-rule="evenodd" clip-rule="evenodd" d="M11.4778 1.01894C12.5563 0.993647 13.6881 1.2669 14.5935 1.90068L20.7718 6.22951L20.7728 6.23023C21.4339 6.69128 21.9793 7.39209 22.3577 8.11716C22.7365 8.84268 23 9.69197 23 10.4999V17.7799C23 20.6407 20.6638 22.9899 17.79 22.9899H6.21C3.33463 22.9899 1 20.6391 1 17.7699V10.3599C1 9.60095 1.23837 8.79393 1.57974 8.09818C1.92127 7.4021 2.41433 6.71863 3.01589 6.25069L8.40535 2.05111C9.27999 1.37083 10.3993 1.04422 11.4778 1.01894ZM9.63394 3.62926L4.24465 7.82871C3.94628 8.06077 3.6237 8.47279 3.37526 8.97914C3.12663 9.4859 3 9.98887 3 10.3599V17.7699C3 19.5407 4.44537 20.9899 6.21 20.9899H17.79C19.5562 20.9899 21 19.5392 21 17.7799V10.4999C21 10.0979 20.8585 9.56714 20.5848 9.04266C20.3109 8.51811 19.9567 8.09926 19.6282 7.87031L19.6262 7.86889L13.4465 3.53914C12.952 3.19308 12.2585 3.00118 11.5247 3.01839C10.7909 3.03559 10.1093 3.25971 9.63394 3.62926Z" fill="currentColor"/>
  <path fill-rule="evenodd" clip-rule="evenodd" d="M12 13.9899C12.5523 13.9899 13 14.4376 13 14.9899V17.9899C13 18.5422 12.5523 18.9899 12 18.9899C11.4477 18.9899 11 18.5422 11 17.9899V14.9899C11 14.4376 11.4477 13.9899 12 13.9899Z" fill="currentColor"/>
</svg>