<svg viewBox="0 0 24 24" xmlns="http://www.w3.org/2000/svg">
<g id="Tabbar icon">
<g id="Vector">
<path d="M16.5096 1.23694H7.49015C3.5724 1.23694 1.23682 3.57252 1.23682 7.49028V16.5097C1.23682 19.5341 2.62525 21.6114 5.06847 22.3971C5.77883 22.6447 6.59682 22.7631 7.49015 22.7631H16.5096C17.4029 22.7631 18.2209 22.6447 18.9313 22.3971C21.3745 21.6114 22.7629 19.5341 22.7629 16.5097V7.49028C22.7629 3.57252 20.4274 1.23694 16.5096 1.23694ZM21.1485 16.5097C21.1485 18.813 20.2444 20.266 18.4254 20.8688C17.3814 18.813 14.9059 17.3492 11.9999 17.3492C9.09385 17.3492 6.62911 18.8023 5.57433 20.8688H5.56357C3.76614 20.2876 2.85128 18.8238 2.85128 16.5205V7.49028C2.85128 4.45509 4.45497 2.8514 7.49015 2.8514H16.5096C19.5448 2.8514 21.1485 4.45509 21.1485 7.49028V16.5097Z" fill="currentColor"/>
<path d="M11.9999 7.69478C9.86884 7.69478 8.14675 9.41687 8.14675 11.548C8.14675 13.679 9.86884 15.4119 11.9999 15.4119C14.131 15.4119 15.8531 13.679 15.8531 11.548C15.8531 9.41687 14.131 7.69478 11.9999 7.69478Z" fill="currentColor"/>
</g>
</g>
</svg>
