<svg xmlns="http://www.w3.org/2000/svg" viewBox="0 0 24 24" fill="currentColor">
  <path fill-rule="evenodd" clip-rule="evenodd" d="M3.00996 10.22C3.56224 10.22 4.00996 10.6677 4.00996 11.22V15.71C4.00996 17.8558 4.44612 19.0995 5.17831 19.8316C5.9105 20.5638 7.15413 21 9.29996 21H14.69C16.8358 21 18.0794 20.5638 18.8116 19.8316C19.5438 19.0995 19.98 17.8558 19.98 15.71V11.22C19.98 10.6677 20.4277 10.22 20.98 10.22C21.5322 10.22 21.98 10.6677 21.98 11.22V15.71C21.98 18.0542 21.5161 19.9555 20.2258 21.2459C18.9355 22.5362 17.0341 23 14.69 23H9.29996C6.95578 23 5.05441 22.5362 3.7641 21.2459C2.47379 19.9555 2.00996 18.0542 2.00996 15.71V11.22C2.00996 10.6677 2.45767 10.22 3.00996 10.22Z" fill="currentColor"/>
  <path fill-rule="evenodd" clip-rule="evenodd" d="M8.67495 1.9002C8.72621 1.38913 9.15632 1 9.66996 1H14.34C14.8542 1 15.2846 1.38996 15.3351 1.90168L15.9951 8.58168C16.2327 10.9975 14.4232 13 12 13C9.57669 13 7.76713 10.998 8.00476 8.58211L8.67495 1.9002ZM10.5747 3L9.99515 8.77789C9.87327 10.0216 10.7635 11 12 11C13.2365 11 14.1269 10.0223 14.0048 8.77832L13.4339 3H10.5747Z" fill="currentColor"/>
  <path fill-rule="evenodd" clip-rule="evenodd" d="M13.5586 1.32894C13.7481 1.11949 14.0175 1 14.3 1H17.35C18.7624 1 19.9725 1.26516 20.866 2.09042C21.7462 2.90351 22.1303 4.08944 22.3205 5.46285C22.3222 5.47477 22.3236 5.48673 22.3248 5.4987L22.605 8.25099C22.8634 10.8475 20.9234 13 18.31 13C16.1475 13 14.2278 11.2726 14.0052 9.11249L14.0049 9.10936L13.3049 2.09936C13.2768 1.81826 13.369 1.53839 13.5586 1.32894ZM15.4048 3L15.9947 8.90751L15.9948 8.90893C16.113 10.0482 17.1729 11 18.31 11C19.7362 11 20.756 9.87301 20.615 8.44999L20.337 5.71966C20.1667 4.50471 19.8719 3.89488 19.5089 3.55958C19.1574 3.23484 18.5575 3 17.35 3H15.4048Z" fill="currentColor"/>
  <path fill-rule="evenodd" clip-rule="evenodd" d="M3.07393 2.09042C3.96736 1.26516 5.17752 1 6.58996 1H9.63996C9.92248 1 10.1918 1.11951 10.3814 1.32899C10.571 1.53848 10.6631 1.81838 10.635 2.0995L9.93529 9.10652L9.93516 9.1078C9.72447 11.2734 7.80071 13 5.63996 13C3.02675 13 1.08685 10.8479 1.3448 8.25168L1.61474 5.50229C1.61603 5.48911 1.61759 5.47596 1.61941 5.46285C1.80957 4.08944 2.19367 2.90351 3.07393 2.09042ZM3.60319 5.71791L3.33504 8.44901C3.1934 9.8725 4.21339 11 5.63996 11C6.77877 11 7.83468 10.0473 7.94462 8.91348L7.94487 8.91094L8.53497 3H6.58996C5.38239 3 4.78255 3.23484 4.43098 3.55958C4.06815 3.89472 3.77345 4.50413 3.60319 5.71791Z" fill="currentColor"/>
  <path fill-rule="evenodd" clip-rule="evenodd" d="M9.4166 16.9166C10.0873 16.246 11.0123 16 12 16C12.9876 16 13.9126 16.246 14.5833 16.9166C15.254 17.5873 15.5 18.5124 15.5 19.5V22C15.5 22.5523 15.0522 23 14.5 23H9.49996C8.94767 23 8.49996 22.5523 8.49996 22V19.5C8.49996 18.5124 8.74591 17.5873 9.4166 16.9166ZM10.8308 18.3309C10.669 18.4927 10.5 18.8176 10.5 19.5V21H13.5V19.5C13.5 18.8176 13.3309 18.4927 13.1691 18.3309C13.0073 18.169 12.6823 18 12 18C11.3176 18 10.9926 18.169 10.8308 18.3309Z" fill="currentColor"/>
</svg>