<svg viewBox="0 0 24 24" xmlns="http://www.w3.org/2000/svg">
<g id="Tabbar icon">
<g id="Vector">
<path d="M22.3599 8.27L22.0699 5.5C21.6499 2.48 20.2799 1.25 17.3499 1.25H6.58989C3.64989 1.25 2.28989 2.48 1.85989 5.53L1.58989 8.28C1.48989 9.35 1.77989 10.39 2.40989 11.2C3.16989 12.19 4.33989 12.75 5.63989 12.75C6.89989 12.75 8.10989 12.12 8.86989 11.11C9.54989 12.12 10.7099 12.75 11.9999 12.75C13.2899 12.75 14.4199 12.15 15.1099 11.15C15.8799 12.14 17.0699 12.75 18.3099 12.75C19.6399 12.75 20.8399 12.16 21.5899 11.12C22.1899 10.32 22.4599 9.31 22.3599 8.27Z" fill="#currentColor"/>
<path d="M11.3499 16.66C10.0799 16.79 9.11989 17.87 9.11989 19.15V21.89C9.11989 22.16 9.33989 22.38 9.60989 22.38H14.3799C14.6499 22.38 14.8699 22.16 14.8699 21.89V19.5C14.8799 17.41 13.6499 16.42 11.3499 16.66Z" fill="#currentColor"/>
<path d="M21.3699 14.4V17.38C21.3699 20.14 19.1299 22.38 16.3699 22.38C16.0999 22.38 15.8799 22.16 15.8799 21.89V19.5C15.8799 18.22 15.4899 17.22 14.7299 16.54C14.0599 15.93 13.1499 15.63 12.0199 15.63C11.7699 15.63 11.5199 15.64 11.2499 15.67C9.46989 15.85 8.11989 17.35 8.11989 19.15V21.89C8.11989 22.16 7.89989 22.38 7.62989 22.38C4.86989 22.38 2.62989 20.14 2.62989 17.38V14.42C2.62989 13.72 3.31989 13.25 3.96989 13.48C4.23989 13.57 4.50989 13.64 4.78989 13.68C4.90989 13.7 5.03989 13.72 5.15989 13.72C5.31989 13.74 5.47989 13.75 5.63989 13.75C6.79989 13.75 7.93989 13.32 8.83989 12.58C9.69989 13.32 10.8199 13.75 11.9999 13.75C13.1899 13.75 14.2899 13.34 15.1499 12.6C16.0499 13.33 17.1699 13.75 18.3099 13.75C18.4899 13.75 18.6699 13.74 18.8399 13.72C18.9599 13.71 19.0699 13.7 19.1799 13.68C19.4899 13.64 19.7699 13.55 20.0499 13.46C20.6999 13.24 21.3699 13.72 21.3699 14.4Z" fill="#currentColor"/>
</g>
</g>
</svg>
