<svg width="25" height="24" viewBox="0 0 25 24" fill="none" xmlns="http://www.w3.org/2000/svg">
    <g id="calendar-check-01">
        <path id="Icon (Stroke)" fill-rule="evenodd" clip-rule="evenodd"
            d="M8.875 1C9.42729 1 9.875 1.44772 9.875 2V3H15.875V2C15.875 1.44772 16.3227 1 16.875 1C17.4273 1 17.875 1.44772 17.875 2V3.00163C18.3505 3.00489 18.766 3.01471 19.1268 3.04419C19.6889 3.09012 20.2056 3.18868 20.691 3.43597C21.4436 3.81947 22.0555 4.43139 22.439 5.18404C22.6863 5.66937 22.7849 6.18608 22.8308 6.74817C22.875 7.28936 22.875 7.95372 22.875 8.75868V17.2413C22.875 18.0463 22.875 18.7106 22.8308 19.2518C22.7849 19.8139 22.6863 20.3306 22.439 20.816C22.0555 21.5686 21.4436 22.1805 20.691 22.564C20.2056 22.8113 19.6889 22.9099 19.1268 22.9558C18.5856 23 17.9213 23 17.1163 23H8.63368C7.82872 23 7.16437 23 6.62318 22.9558C6.06108 22.9099 5.54437 22.8113 5.05904 22.564C4.30639 22.1805 3.69447 21.5686 3.31097 20.816C3.06368 20.3306 2.96512 19.8139 2.91919 19.2518C2.87498 18.7106 2.87499 18.0463 2.875 17.2413V8.7587C2.87499 7.95373 2.87498 7.28937 2.91919 6.74817C2.96512 6.18608 3.06368 5.66937 3.31097 5.18404C3.69447 4.43139 4.30639 3.81947 5.05904 3.43597C5.54437 3.18868 6.06108 3.09012 6.62318 3.04419C6.98398 3.01471 7.39954 3.00489 7.875 3.00163V2C7.875 1.44772 8.32272 1 8.875 1ZM7.875 5.00176C7.42947 5.00489 7.07963 5.01356 6.78604 5.03755C6.34762 5.07337 6.12342 5.1383 5.96702 5.21799C5.5907 5.40973 5.28473 5.71569 5.09299 6.09202C5.0133 6.24842 4.94837 6.47262 4.91255 6.91104C4.87578 7.36113 4.875 7.94342 4.875 8.8V9H20.875V8.8C20.875 7.94342 20.8742 7.36113 20.8375 6.91104C20.8016 6.47262 20.7367 6.24842 20.657 6.09202C20.4653 5.7157 20.1593 5.40973 19.783 5.21799C19.6266 5.1383 19.4024 5.07337 18.964 5.03755C18.6704 5.01356 18.3205 5.00489 17.875 5.00176V6C17.875 6.55228 17.4273 7 16.875 7C16.3227 7 15.875 6.55228 15.875 6V5H9.875V6C9.875 6.55228 9.42729 7 8.875 7C8.32272 7 7.875 6.55228 7.875 6V5.00176ZM20.875 11H4.875V17.2C4.875 18.0566 4.87578 18.6389 4.91255 19.089C4.94837 19.5274 5.0133 19.7516 5.09299 19.908C5.28473 20.2843 5.5907 20.5903 5.96702 20.782C6.12342 20.8617 6.34762 20.9266 6.78604 20.9624C7.23613 20.9992 7.81842 21 8.675 21H17.075C17.9316 21 18.5139 20.9992 18.964 20.9624C19.4024 20.9266 19.6266 20.8617 19.783 20.782C20.1593 20.5903 20.4653 20.2843 20.657 19.908C20.7367 19.7516 20.8016 19.5274 20.8375 19.089C20.8742 18.6389 20.875 18.0566 20.875 17.2V11ZM17.0821 12.7929C17.4726 13.1834 17.4726 13.8166 17.0821 14.2071L12.5821 18.7071C12.1916 19.0976 11.5584 19.0976 11.1679 18.7071L9.1679 16.7071C8.77737 16.3166 8.77737 15.6834 9.1679 15.2929C9.55842 14.9024 10.1916 14.9024 10.5821 15.2929L11.875 16.5858L15.6679 12.7929C16.0584 12.4024 16.6916 12.4024 17.0821 12.7929Z"
            fill="currentColor" />
    </g>
</svg>