<svg width="14" height="14" viewBox="0 0 14 14" fill="none" xmlns="http://www.w3.org/2000/svg">
<path fill-rule="evenodd" clip-rule="evenodd" d="M10.4307 1.70082C10.0194 1.66723 9.49124 1.66671 8.7335 1.66671H4.00016C3.63197 1.66671 3.3335 1.36823 3.3335 1.00004C3.3335 0.631851 3.63197 0.333374 4.00016 0.333374L8.76204 0.333374C9.48456 0.333368 10.0673 0.333362 10.5392 0.37192C11.0251 0.411619 11.4519 0.495494 11.8468 0.696686C12.474 1.01626 12.9839 1.5262 13.3035 2.15341C13.5047 2.54827 13.5886 2.97506 13.6283 3.46096C13.6668 3.93287 13.6668 4.51564 13.6668 5.23815V10C13.6668 10.3682 13.3684 10.6667 13.0002 10.6667C12.632 10.6667 12.3335 10.3682 12.3335 10V5.26671C12.3335 4.50897 12.333 3.98076 12.2994 3.56953C12.2664 3.16609 12.205 2.9343 12.1155 2.75873C11.9238 2.3824 11.6178 2.07644 11.2415 1.88469C11.0659 1.79524 10.8341 1.73379 10.4307 1.70082ZM3.1078 2.66671H8.55919C8.91063 2.6667 9.2138 2.66669 9.46352 2.68709C9.72708 2.70862 9.98923 2.75617 10.2415 2.8847C10.6178 3.07644 10.9238 3.3824 11.1155 3.75873C11.244 4.01098 11.2916 4.27313 11.3131 4.53669C11.3335 4.78641 11.3335 5.08959 11.3335 5.44103V10.8924C11.3335 11.2438 11.3335 11.547 11.3131 11.7967C11.2916 12.0603 11.244 12.3224 11.1155 12.5747C10.9238 12.951 10.6178 13.257 10.2415 13.4487C9.98923 13.5773 9.72708 13.6248 9.46352 13.6463C9.21381 13.6667 8.91063 13.6667 8.55921 13.6667H3.10779C2.75636 13.6667 2.45319 13.6667 2.20348 13.6463C1.93992 13.6248 1.67777 13.5773 1.42552 13.4487C1.04919 13.257 0.743231 12.951 0.551484 12.5747C0.422955 12.3224 0.375411 12.0603 0.353877 11.7967C0.333474 11.547 0.333485 11.2438 0.333497 10.8924V5.44101C0.333485 5.08958 0.333474 4.7864 0.353877 4.53669C0.375411 4.27313 0.422955 4.01098 0.551484 3.75873C0.743231 3.3824 1.04919 3.07644 1.42552 2.8847C1.67777 2.75617 1.93992 2.70862 2.20348 2.68709C2.45319 2.66669 2.75637 2.6667 3.1078 2.66671ZM2.31205 4.01599C2.13095 4.03079 2.0638 4.05591 2.03084 4.0727C1.9054 4.13662 1.80341 4.23861 1.73949 4.36405C1.7227 4.39701 1.69758 4.46416 1.68278 4.64527C1.66735 4.83416 1.66683 5.08234 1.66683 5.46671V10.8667C1.66683 11.2511 1.66735 11.4993 1.68278 11.6882C1.69758 11.8693 1.7227 11.9364 1.73949 11.9694C1.80341 12.0948 1.9054 12.1968 2.03084 12.2607C2.0638 12.2775 2.13095 12.3026 2.31205 12.3174C2.50095 12.3329 2.74913 12.3334 3.1335 12.3334H8.5335C8.91787 12.3334 9.16605 12.3329 9.35494 12.3174C9.53605 12.3026 9.6032 12.2775 9.63616 12.2607C9.7616 12.1968 9.86359 12.0948 9.9275 11.9694C9.9443 11.9364 9.96942 11.8693 9.98421 11.6882C9.99965 11.4993 10.0002 11.2511 10.0002 10.8667V5.46671C10.0002 5.08234 9.99965 4.83416 9.98421 4.64527C9.96942 4.46416 9.9443 4.39701 9.9275 4.36405C9.86359 4.23861 9.7616 4.13662 9.63616 4.0727C9.6032 4.05591 9.53605 4.03079 9.35494 4.01599C9.16605 4.00056 8.91787 4.00004 8.5335 4.00004H3.1335C2.74913 4.00004 2.50095 4.00056 2.31205 4.01599Z" fill="#181D27"/>
</svg>
