<svg xmlns="http://www.w3.org/2000/svg" viewBox="0 0 20 20" fill="currentColor">
  <path fill-rule="evenodd" clip-rule="evenodd" d="M7.29892 0.833374H12.7011C13.3719 0.833364 13.9255 0.833355 14.3765 0.870203C14.8449 0.908474 15.2755 0.990611 15.68 1.19669C16.3072 1.51626 16.8171 2.0262 17.1367 2.65341C17.3428 3.05785 17.4249 3.48844 17.4632 3.95685C17.5 4.40785 17.5 4.96147 17.5 5.63227V14.3678C17.5 15.0386 17.5 15.5922 17.4632 16.0432C17.4249 16.5116 17.3428 16.9422 17.1367 17.3467C16.8171 17.9739 16.3072 18.4838 15.68 18.8034C15.2755 19.0095 14.8449 19.0916 14.3765 19.1299C13.9255 19.1667 13.3719 19.1667 12.7011 19.1667H7.2989C6.6281 19.1667 6.07447 19.1667 5.62348 19.1299C5.15506 19.0916 4.72448 19.0095 4.32003 18.8034C3.69283 18.4838 3.18289 17.9739 2.86331 17.3467C2.65724 16.9422 2.5751 16.5116 2.53683 16.0432C2.49998 15.5922 2.49999 15.0386 2.5 14.3678V5.63229C2.49999 4.96148 2.49998 4.40785 2.53683 3.95685C2.5751 3.48844 2.65724 3.05785 2.86331 2.65341C3.18289 2.0262 3.69283 1.51626 4.32003 1.19669C4.72448 0.990611 5.15507 0.908474 5.62348 0.870203C6.07448 0.833355 6.62811 0.833364 7.29892 0.833374ZM5.7592 2.53133C5.39385 2.56118 5.20702 2.61529 5.07668 2.6817C4.76308 2.84149 4.50811 3.09645 4.34832 3.41006C4.28192 3.54039 4.22781 3.72723 4.19796 4.09257C4.16732 4.46765 4.16667 4.95289 4.16667 5.66671V14.3334C4.16667 15.0472 4.16732 15.5324 4.19796 15.9075C4.22781 16.2729 4.28192 16.4597 4.34832 16.59C4.50811 16.9036 4.76308 17.1586 5.07668 17.3184C5.20702 17.3848 5.39385 17.4389 5.7592 17.4688C6.13427 17.4994 6.61952 17.5 7.33333 17.5H12.6667C13.3805 17.5 13.8657 17.4994 14.2408 17.4688C14.6061 17.4389 14.793 17.3848 14.9233 17.3184C15.2369 17.1586 15.4919 16.9036 15.6517 16.59C15.7181 16.4597 15.7722 16.2729 15.802 15.9075C15.8327 15.5324 15.8333 15.0472 15.8333 14.3334V5.66671C15.8333 4.95289 15.8327 4.46765 15.802 4.09257C15.7722 3.72723 15.7181 3.54039 15.6517 3.41006C15.4919 3.09645 15.2369 2.84149 14.9233 2.6817C14.793 2.61529 14.6061 2.56118 14.2408 2.53133C13.8657 2.50069 13.3805 2.50004 12.6667 2.50004H7.33333C6.61952 2.50004 6.13427 2.50069 5.7592 2.53133ZM5.83333 5.83338C5.83333 5.37314 6.20643 5.00004 6.66667 5.00004H13.3333C13.7936 5.00004 14.1667 5.37314 14.1667 5.83338C14.1667 6.29361 13.7936 6.66671 13.3333 6.66671H6.66667C6.20643 6.66671 5.83333 6.29361 5.83333 5.83338ZM5.83333 9.16671C5.83333 8.70647 6.20643 8.33338 6.66667 8.33338H11.6667C12.1269 8.33338 12.5 8.70647 12.5 9.16671C12.5 9.62695 12.1269 10 11.6667 10H6.66667C6.20643 10 5.83333 9.62695 5.83333 9.16671ZM5.83333 12.5C5.83333 12.0398 6.20643 11.6667 6.66667 11.6667H8.33333C8.79357 11.6667 9.16667 12.0398 9.16667 12.5C9.16667 12.9603 8.79357 13.3334 8.33333 13.3334H6.66667C6.20643 13.3334 5.83333 12.9603 5.83333 12.5Z" fill="currentColor"/>
</svg>