<svg xmlns="http://www.w3.org/2000/svg" viewBox="0 0 25 24" fill="currentColor">
  <path fill-rule="evenodd" clip-rule="evenodd" d="M2.5 6C2.5 4.89543 3.39543 4 4.5 4C5.60457 4 6.5 4.89543 6.5 6C6.5 7.10457 5.60457 8 4.5 8C3.39543 8 2.5 7.10457 2.5 6ZM8.5 6C8.5 5.44772 8.94772 5 9.5 5H21.5C22.0523 5 22.5 5.44772 22.5 6C22.5 6.55229 22.0523 7 21.5 7L9.5 7C8.94772 7 8.5 6.55228 8.5 6ZM2.5 12C2.5 10.8954 3.39543 10 4.5 10C5.60457 10 6.5 10.8954 6.5 12C6.5 13.1046 5.60457 14 4.5 14C3.39543 14 2.5 13.1046 2.5 12ZM8.5 12C8.5 11.4477 8.94772 11 9.5 11L21.5 11C22.0523 11 22.5 11.4477 22.5 12C22.5 12.5523 22.0523 13 21.5 13L9.5 13C8.94772 13 8.5 12.5523 8.5 12ZM2.5 18C2.5 16.8954 3.39543 16 4.5 16C5.60457 16 6.5 16.8954 6.5 18C6.5 19.1046 5.60457 20 4.5 20C3.39543 20 2.5 19.1046 2.5 18ZM8.5 18C8.5 17.4477 8.94772 17 9.5 17L21.5 17C22.0523 17 22.5 17.4477 22.5 18C22.5 18.5523 22.0523 19 21.5 19L9.5 19C8.94772 19 8.5 18.5523 8.5 18Z" fill="currentColor"/>
</svg>