<svg xmlns="http://www.w3.org/2000/svg" viewBox="0 0 16 16" fill="none">
  <path d="M15 8C15 8.91925 14.8189 9.82951 14.4672 10.6788C14.1154 11.5281 13.5998 12.2997 12.9497 12.9497C12.2997 13.5998 11.5281 14.1154 10.6788 14.4672C9.82951 14.8189 8.91925 15 8 15C7.08075 15 6.17049 14.8189 5.32122 14.4672C4.47194 14.1154 3.70026 13.5998 3.05025 12.9497C2.40024 12.2997 1.88463 11.5281 1.53284 10.6788C1.18106 9.8295 1 8.91925 1 8C1 7.08074 1.18106 6.17049 1.53284 5.32121C1.88463 4.47193 2.40024 3.70026 3.05025 3.05025C3.70027 2.40024 4.47194 1.88462 5.32122 1.53284C6.1705 1.18106 7.08075 1 8 1C8.91926 1 9.82951 1.18106 10.6788 1.53284C11.5281 1.88463 12.2997 2.40024 12.9498 3.05026C13.5998 3.70027 14.1154 4.47194 14.4672 5.32122C14.8189 6.1705 15 7.08075 15 8L15 8Z" stroke="white" stroke-opacity="0.5" stroke-width="2" stroke-linecap="round" stroke-linejoin="round"/>
  <path d="M3.05025 3.05025C3.83138 2.26913 4.78628 1.68397 5.83688 1.3426C6.88749 1.00124 8.00397 0.913373 9.09504 1.08618C10.1861 1.25899 11.2208 1.68757 12.1145 2.33688C13.0082 2.98619 13.7355 3.8378 14.237 4.82207C14.7386 5.80634 15 6.89533 15 8C15 9.10467 14.7386 10.1937 14.237 11.1779C13.7355 12.1622 13.0082 13.0138 12.1145 13.6631C11.2208 14.3124 10.1861 14.741 9.09504 14.9138" stroke="#181D27" stroke-width="2" stroke-linecap="round" stroke-linejoin="round"/>
</svg>
