<svg width="25" height="24" viewBox="0 0 25 24" fill="none" xmlns="http://www.w3.org/2000/svg">
    <g clip-path="url(#clip0_24702_11092)">
        <g clip-path="url(#clip1_24702_11092)">
            <path d="M12.375 0.392578C18.7817 0.392578 23.9823 5.59316 23.9823 11.9999C23.9823 18.4065 18.7817 23.6071 12.375 23.6071C5.9683 23.6071 0.767715 18.4065 0.767715 11.9999C0.767715 5.59316 5.9683 0.392578 12.375 0.392578ZM12.375 2.26196C6.99724 2.26196 2.6371 6.62865 2.6371 11.9999C2.6371 17.3636 7.01121 21.7377 12.375 21.7377C17.7388 21.7377 22.1129 17.3636 22.1129 11.9999C22.1129 6.62865 17.7527 2.26196 12.375 2.26196ZM17.5913 13.0471C18.0364 13.0471 18.406 13.5062 18.2847 14.0783L18.2676 14.1476C18.2371 14.3283 18.0119 14.6154 17.8322 14.7904L15.5574 16.8793C15.3436 17.0721 14.6393 17.1559 14.3347 16.8976C14.0628 16.6528 13.9551 16.1427 14.1532 15.8822L14.1916 15.8385L15.3545 14.7729H6.86721C6.52335 14.7729 6.12059 14.4527 6.02633 14.114L6.01324 14.0543L6.0067 13.9975C5.96699 13.6026 6.43172 13.0938 6.81528 13.0502L6.86721 13.0471H17.5913ZM10.215 6.66356L10.2804 6.70894L10.3354 6.75694C10.702 7.09905 10.6736 7.59476 10.3904 7.912L10.3463 7.95825L9.15681 9.16654L17.4879 9.16611L17.5245 9.16523C17.7348 9.16087 17.8605 9.1648 18.0045 9.18705C18.471 9.25905 18.7459 9.51083 18.7459 10.0196C18.7459 10.4499 18.5316 10.72 18.1756 10.8566C18.0045 10.9207 17.8233 10.9535 17.6406 10.9535L17.5655 10.9513L6.70226 10.95C6.09964 10.8125 5.90852 10.3151 6.03855 9.81192C6.08306 9.62516 6.28728 9.3581 6.47666 9.16261L6.53906 9.10021L8.75797 6.92931C9.18211 6.51825 9.71579 6.33934 10.2154 6.66356H10.215Z"
                  fill="currentColor"/>
        </g>
    </g>
    <defs>
        <clipPath id="clip0_24702_11092">
            <rect width="24" height="24" fill="white" transform="translate(0.375)"/>
        </clipPath>
        <clipPath id="clip1_24702_11092">
            <rect width="24" height="24" fill="white" transform="translate(0.375)"/>
        </clipPath>
    </defs>
</svg>
