<svg xmlns="http://www.w3.org/2000/svg" viewBox="0 0 20 20" fill="none">
  <path fill-rule="evenodd" clip-rule="evenodd" d="M6.46567 1.66663L8.33342 1.66663C8.79365 1.66663 9.16675 2.03972 9.16675 2.49996C9.16675 2.9602 8.79365 3.33329 8.33342 3.33329H6.50008C5.78627 3.33329 5.30102 3.33394 4.92595 3.36459C4.5606 3.39444 4.37376 3.44854 4.24343 3.51495C3.92983 3.67474 3.67486 3.92971 3.51507 4.24331C3.44866 4.37364 3.39456 4.56048 3.36471 4.92582C3.33406 5.3009 3.33342 5.78614 3.33342 6.49996V13.5C3.33342 14.2138 3.33406 14.699 3.36471 15.0741C3.39456 15.4394 3.44866 15.6263 3.51507 15.7566C3.67486 16.0702 3.92983 16.3252 4.24343 16.485C4.37376 16.5514 4.5606 16.6055 4.92595 16.6353C5.30102 16.666 5.78627 16.6666 6.50008 16.6666H13.5001C14.2139 16.6666 14.6991 16.666 15.0742 16.6353C15.4396 16.6055 15.6264 16.5514 15.7567 16.485C16.0703 16.3252 16.3253 16.0702 16.4851 15.7566C16.5515 15.6263 16.6056 15.4394 16.6355 15.0741C16.6661 14.699 16.6667 14.2138 16.6667 13.5V11.6666C16.6667 11.2064 17.0398 10.8333 17.5001 10.8333C17.9603 10.8333 18.3334 11.2064 18.3334 11.6666V13.5344C18.3334 14.2052 18.3334 14.7588 18.2966 15.2098C18.2583 15.6782 18.1762 16.1088 17.9701 16.5133C17.6505 17.1405 17.1406 17.6504 16.5134 17.97C16.1089 18.1761 15.6784 18.2582 15.2099 18.2965C14.7589 18.3333 14.2053 18.3333 13.5345 18.3333H6.46565C5.79485 18.3333 5.24122 18.3333 4.79023 18.2965C4.32181 18.2582 3.89123 18.1761 3.48678 17.97C2.85957 17.6504 2.34964 17.1405 2.03006 16.5133C1.82398 16.1088 1.74185 15.6782 1.70358 15.2098C1.66673 14.7588 1.66674 14.2052 1.66675 13.5344V6.46554C1.66674 5.79473 1.66673 5.2411 1.70358 4.79011C1.74185 4.32169 1.82398 3.8911 2.03006 3.48666C2.34964 2.85945 2.85957 2.34952 3.48678 2.02994C3.89123 1.82386 4.32181 1.74173 4.79023 1.70345C5.24122 1.66661 5.79486 1.66662 6.46567 1.66663ZM11.6667 2.49997C11.6667 2.03973 12.0398 1.66663 12.5001 1.66663H17.5001C17.9603 1.66663 18.3334 2.03973 18.3334 2.49997L18.3334 7.49997C18.3334 7.9602 17.9603 8.3333 17.5001 8.3333C17.0398 8.3333 16.6667 7.96021 16.6667 7.49997L16.6667 4.51181L10.5893 10.5892C10.2639 10.9147 9.73626 10.9147 9.41083 10.5892C9.08539 10.2638 9.08539 9.73614 9.41083 9.41071L15.4882 3.3333H12.5001C12.0398 3.3333 11.6667 2.96021 11.6667 2.49997Z" fill="currentColor"/>
</svg>