

<!-- <svg viewBox="0 0 33 32" fill="none" xmlns="http://www.w3.org/2000/svg">
<path fill-rule="evenodd" clip-rule="evenodd" d="M30.125 15.3785C30.125 6.20699 26.8942 2 16.125 2C5.35577 2 2.125 6.20699 2.125 15.3785C2.125 21.9055 3.76129 25.9182 8.58654 27.6895V30.7774C8.58654 31.9141 10.0127 32.4332 10.7514 31.5656L13.2414 28.6411C14.1363 28.7185 15.0963 28.7569 16.125 28.7569C26.8942 28.7569 30.125 24.5499 30.125 15.3785ZM13.8363 26.5316C14.5501 26.5882 15.3122 26.6164 16.125 26.6164C25.2374 26.6164 27.9712 23.0825 27.9712 15.3785C27.9712 7.67443 25.2374 4.14055 16.125 4.14055C7.01257 4.14055 4.27885 7.67443 4.27885 15.3785C4.27885 20.8239 5.64465 24.1859 9.66346 25.6891V30.2639C9.66346 30.6627 10.1639 30.8449 10.4231 30.5404L13.8363 26.5316Z" fill="currentColor"/>
<path d="M16.125 25.8548C15.3016 25.8548 14.5297 25.8262 13.8065 25.7685L10.349 29.845C10.0864 30.1546 9.57955 29.9693 9.57955 29.5638V24.9119C5.50854 23.3834 4.125 19.9647 4.125 14.4274C4.125 6.59346 6.89423 3 16.125 3C25.3558 3 28.125 6.59346 28.125 14.4274C28.125 22.2613 25.3558 25.8548 16.125 25.8548Z" fill="currentColor"/>
<path fill-rule="evenodd" clip-rule="evenodd" d="M30.125 14.3785C30.125 5.20699 26.8942 1 16.125 1C5.35577 1 2.125 5.20699 2.125 14.3785C2.125 20.9055 3.76129 24.9182 8.58654 26.6895V29.7774C8.58654 30.9141 10.0127 31.4332 10.7514 30.5656L13.2414 27.6411C14.1363 27.7185 15.0963 27.7569 16.125 27.7569C26.8942 27.7569 30.125 23.5499 30.125 14.3785ZM13.8363 25.5316C14.5501 25.5882 15.3122 25.6164 16.125 25.6164C25.2374 25.6164 27.9712 22.0825 27.9712 14.3785C27.9712 6.67443 25.2374 3.14055 16.125 3.14055C7.01257 3.14055 4.27885 6.67443 4.27885 14.3785C4.27885 19.8239 5.64465 23.1859 9.66346 24.6891V29.2639C9.66346 29.6627 10.1639 29.8449 10.4231 29.5404L13.8363 25.5316Z" fill="white"/>
<path d="M11.6682 12.1345L11.6276 12.157L11.5918 12.1866C11.3152 12.4154 10.9006 13.0434 11.2638 13.8197C11.5664 14.4665 12.2407 15.7874 13.4255 16.7826C14.5842 17.756 15.8215 18.2795 16.6342 18.4509L16.6853 18.4617H16.7319C16.7341 18.4619 16.739 18.4624 16.7469 18.4636C16.7662 18.4663 16.7895 18.4703 16.8262 18.4767L16.9124 17.9842L16.8262 18.4767C16.8325 18.4778 16.839 18.479 16.8458 18.4802C17.0959 18.5244 17.6954 18.6304 18.1979 18.1297C18.5204 17.8083 18.8148 17.4732 18.9415 17.3225C19.0305 17.2413 19.3206 17.0731 19.6876 17.1972C20.3826 17.4321 21.2089 17.9621 21.6083 18.2308C21.9175 18.439 22.6174 18.9404 22.9329 19.1682L22.9332 19.1684C22.9594 19.1873 23.0209 19.2493 23.0541 19.3354C23.0807 19.4042 23.095 19.4988 23.0311 19.6357C22.9125 19.8895 22.5516 20.374 22.0628 20.7978C21.5651 21.2294 21.0472 21.5 20.6322 21.5C20.6337 21.5 20.6322 21.4998 20.6275 21.4992C20.609 21.4967 20.5403 21.4874 20.4042 21.4568C20.2512 21.4225 20.0445 21.3686 19.7919 21.2926C19.2872 21.1407 18.61 20.904 17.8279 20.5675C16.2625 19.8941 14.2918 18.8277 12.4468 17.2572C11.2863 16.2694 10.1914 14.9036 9.3388 13.6251C8.47907 12.3358 7.90396 11.1932 7.74744 10.6655L7.73648 10.6285L7.72 10.5937C7.68103 10.5114 7.62612 10.3355 7.62502 10.136C7.62395 9.94333 7.67225 9.75923 7.79965 9.60657C8.21967 9.10322 8.66438 8.60859 9.64549 8.13395C9.73688 8.08974 9.88004 8.05076 10.0208 8.04849C10.165 8.04617 10.2402 8.082 10.2702 8.10835C10.6456 8.43751 11.2275 9.01857 11.6195 9.51513C11.8221 9.77164 12.0668 10.0975 12.2708 10.3806C12.3728 10.5222 12.4627 10.6506 12.5312 10.7527C12.5655 10.8039 12.5929 10.8462 12.6131 10.8788C12.6269 10.9012 12.6343 10.9143 12.6374 10.9199C12.6391 10.9256 12.6468 10.9498 12.6536 10.9939C12.6621 11.0494 12.6661 11.1177 12.6604 11.1891C12.6485 11.3351 12.6005 11.4524 12.5142 11.5315C12.2212 11.7998 11.824 12.0482 11.6682 12.1345ZM16.4016 6.51613C16.4019 6.51585 16.4022 6.51557 16.4025 6.51527C16.4097 6.50852 16.4244 6.5 16.4476 6.5C20.4395 6.5 23.6234 9.53785 23.625 13.223C23.6244 13.2239 23.6233 13.2251 23.6217 13.2267C23.6145 13.2334 23.5997 13.2419 23.5766 13.2419C23.5535 13.2419 23.5387 13.2334 23.5315 13.2267C23.5299 13.2251 23.5289 13.2239 23.5282 13.223C23.5266 9.49946 20.3282 6.53226 16.4476 6.53226C16.4244 6.53226 16.4097 6.52374 16.4025 6.51699C16.4022 6.51669 16.4019 6.5164 16.4016 6.51613ZM16.4025 10.646C16.4022 10.6457 16.4019 10.6454 16.4016 10.6452C16.4019 10.6449 16.4022 10.6446 16.4025 10.6443C16.4097 10.6376 16.4244 10.629 16.4476 10.629C18.0166 10.629 19.2363 11.8182 19.2379 13.223C19.2373 13.2239 19.2362 13.2251 19.2346 13.2267C19.2274 13.2334 19.2127 13.2419 19.1895 13.2419C19.1664 13.2419 19.1516 13.2334 19.1444 13.2267C19.1428 13.2251 19.1418 13.2239 19.1411 13.223C19.1395 11.7799 17.9053 10.6613 16.4476 10.6613C16.4244 10.6613 16.4097 10.6528 16.4025 10.646ZM16.4025 8.5815C16.4022 8.58121 16.4019 8.58092 16.4016 8.58065C16.4019 8.58037 16.4022 8.58008 16.4025 8.57979C16.4097 8.57304 16.4244 8.56452 16.4476 8.56452C19.2281 8.56452 21.4298 10.678 21.4315 13.223C21.4308 13.2239 21.4298 13.2251 21.4282 13.2267C21.421 13.2334 21.4062 13.2419 21.3831 13.2419C21.3599 13.2419 21.3451 13.2334 21.338 13.2267C21.3364 13.2251 21.3353 13.2239 21.3347 13.223C21.3331 10.6397 19.1167 8.59677 16.4476 8.59677C16.4244 8.59677 16.4097 8.58825 16.4025 8.5815Z" fill="white" stroke="white" stroke-linecap="round"/>
</svg> -->

<svg viewBox="0 0 33 32" fill="none" xmlns="http://www.w3.org/2000/svg">
<path d="M16.125 25.8548C15.3016 25.8548 14.5297 25.8262 13.8065 25.7685L10.349 29.845C10.0864 30.1546 9.57955 29.9693 9.57955 29.5638V24.9119C5.50854 23.3834 4.125 19.9647 4.125 14.4274C4.125 6.59346 6.89423 3 16.125 3C25.3558 3 28.125 6.59346 28.125 14.4274C28.125 22.2613 25.3558 25.8548 16.125 25.8548Z" fill="#9179EE"/>
<path fill-rule="evenodd" clip-rule="evenodd" d="M30.125 14.3785C30.125 5.20699 26.8942 1 16.125 1C5.35577 1 2.125 5.20699 2.125 14.3785C2.125 20.9055 3.76129 24.9182 8.58654 26.6895V29.7774C8.58654 30.9141 10.0127 31.4332 10.7514 30.5656L13.2414 27.6411C14.1363 27.7185 15.0963 27.7569 16.125 27.7569C26.8942 27.7569 30.125 23.5499 30.125 14.3785ZM13.8363 25.5316C14.5501 25.5882 15.3122 25.6164 16.125 25.6164C25.2374 25.6164 27.9712 22.0825 27.9712 14.3785C27.9712 6.67443 25.2374 3.14055 16.125 3.14055C7.01257 3.14055 4.27885 6.67443 4.27885 14.3785C4.27885 19.8239 5.64465 23.1859 9.66346 24.6891V29.2639C9.66346 29.6627 10.1639 29.8449 10.4231 29.5404L13.8363 25.5316Z" fill="white"/>
<path d="M11.6682 12.1345L11.6276 12.157L11.5918 12.1866C11.3152 12.4154 10.9006 13.0434 11.2638 13.8197C11.5664 14.4665 12.2407 15.7874 13.4255 16.7826C14.5842 17.756 15.8215 18.2795 16.6342 18.4509L16.6853 18.4617H16.7319C16.7341 18.4619 16.739 18.4624 16.7469 18.4636C16.7662 18.4663 16.7895 18.4703 16.8262 18.4767L16.9124 17.9842L16.8262 18.4767C16.8325 18.4778 16.839 18.479 16.8458 18.4802C17.0959 18.5244 17.6954 18.6304 18.1979 18.1297C18.5204 17.8083 18.8148 17.4732 18.9415 17.3225C19.0305 17.2413 19.3206 17.0731 19.6876 17.1972C20.3826 17.4321 21.2089 17.9621 21.6083 18.2308C21.9175 18.439 22.6174 18.9404 22.9329 19.1682L22.9332 19.1684C22.9594 19.1873 23.0209 19.2493 23.0541 19.3354C23.0807 19.4042 23.095 19.4988 23.0311 19.6357C22.9125 19.8895 22.5516 20.374 22.0628 20.7978C21.5651 21.2294 21.0472 21.5 20.6322 21.5C20.6337 21.5 20.6322 21.4998 20.6275 21.4992C20.609 21.4967 20.5403 21.4874 20.4042 21.4568C20.2512 21.4225 20.0445 21.3686 19.7919 21.2926C19.2872 21.1407 18.61 20.904 17.8279 20.5675C16.2625 19.8941 14.2918 18.8277 12.4468 17.2572C11.2863 16.2694 10.1914 14.9036 9.3388 13.6251C8.47907 12.3358 7.90396 11.1932 7.74744 10.6655L7.73648 10.6285L7.72 10.5937C7.68103 10.5114 7.62612 10.3355 7.62502 10.136C7.62395 9.94333 7.67225 9.75923 7.79965 9.60657C8.21967 9.10322 8.66438 8.60859 9.64549 8.13395C9.73688 8.08974 9.88004 8.05076 10.0208 8.04849C10.165 8.04617 10.2402 8.082 10.2702 8.10835C10.6456 8.43751 11.2275 9.01857 11.6195 9.51513C11.8221 9.77164 12.0668 10.0975 12.2708 10.3806C12.3728 10.5222 12.4627 10.6506 12.5312 10.7527C12.5655 10.8039 12.5929 10.8462 12.6131 10.8788C12.6269 10.9012 12.6343 10.9143 12.6374 10.9199C12.6391 10.9256 12.6468 10.9498 12.6536 10.9939C12.6621 11.0494 12.6661 11.1177 12.6604 11.1891C12.6485 11.3351 12.6005 11.4524 12.5142 11.5315C12.2212 11.7998 11.824 12.0482 11.6682 12.1345ZM16.4016 6.51613C16.4019 6.51585 16.4022 6.51557 16.4025 6.51527C16.4097 6.50852 16.4244 6.5 16.4476 6.5C20.4395 6.5 23.6234 9.53785 23.625 13.223C23.6244 13.2239 23.6233 13.2251 23.6217 13.2267C23.6145 13.2334 23.5997 13.2419 23.5766 13.2419C23.5535 13.2419 23.5387 13.2334 23.5315 13.2267C23.5299 13.2251 23.5289 13.2239 23.5282 13.223C23.5266 9.49946 20.3282 6.53226 16.4476 6.53226C16.4244 6.53226 16.4097 6.52374 16.4025 6.51699C16.4022 6.51669 16.4019 6.5164 16.4016 6.51613ZM16.4025 10.646C16.4022 10.6457 16.4019 10.6454 16.4016 10.6452C16.4019 10.6449 16.4022 10.6446 16.4025 10.6443C16.4097 10.6376 16.4244 10.629 16.4476 10.629C18.0166 10.629 19.2363 11.8182 19.2379 13.223C19.2373 13.2239 19.2362 13.2251 19.2346 13.2267C19.2274 13.2334 19.2127 13.2419 19.1895 13.2419C19.1664 13.2419 19.1516 13.2334 19.1444 13.2267C19.1428 13.2251 19.1418 13.2239 19.1411 13.223C19.1395 11.7799 17.9053 10.6613 16.4476 10.6613C16.4244 10.6613 16.4097 10.6528 16.4025 10.646ZM16.4025 8.5815C16.4022 8.58121 16.4019 8.58092 16.4016 8.58065C16.4019 8.58037 16.4022 8.58008 16.4025 8.57979C16.4097 8.57304 16.4244 8.56452 16.4476 8.56452C19.2281 8.56452 21.4298 10.678 21.4315 13.223C21.4308 13.2239 21.4298 13.2251 21.4282 13.2267C21.421 13.2334 21.4062 13.2419 21.3831 13.2419C21.3599 13.2419 21.3451 13.2334 21.338 13.2267C21.3364 13.2251 21.3353 13.2239 21.3347 13.223C21.3331 10.6397 19.1167 8.59677 16.4476 8.59677C16.4244 8.59677 16.4097 8.58825 16.4025 8.5815Z" fill="white" stroke="white" stroke-linecap="round"/>
</svg>

