<svg viewBox="0 0 48 48" fill="none" xmlns="http://www.w3.org/2000/svg">
<mask id="mask0_17138_1143" style="mask-type:alpha" maskUnits="userSpaceOnUse" x="0" y="0" width="48" height="48">
<rect width="48" height="48" fill="url(#paint0_linear_17138_1143)"/>
</mask>
<g mask="url(#mask0_17138_1143)">
<circle cx="24" cy="24" r="23.5" fill="#FFF9F0" stroke="#FFE0B5"/>
</g>
<rect x="8" y="8" width="32" height="32" rx="16" fill="currentColor"/>
<path fill-rule="evenodd" clip-rule="evenodd" d="M26.4601 17.0039C26.3152 17.0553 26.1198 17.1446 25.7905 17.2966L20.2942 19.8334L26.5 19.8334V17.7506C26.5 17.3879 26.4992 17.173 26.4852 17.02C26.4844 17.0114 26.4836 17.0034 26.4828 16.996C26.4758 16.9984 26.4682 17.001 26.4601 17.0039ZM28.1667 19.8334L28.1667 17.7167C28.1667 17.3994 28.1667 17.1067 28.145 16.8684C28.1224 16.6215 28.0688 16.3099 27.8747 16.0267C27.6196 15.6546 27.2244 15.4018 26.7796 15.3261C26.4411 15.2685 26.1358 15.3503 25.9021 15.4334C25.6766 15.5135 25.4109 15.6361 25.1228 15.7691L17.7 19.195C17.6672 19.2102 17.6348 19.2251 17.6025 19.2399C17.1385 19.4533 16.7306 19.6409 16.4193 19.9451C16.1468 20.2115 15.9387 20.5367 15.8111 20.8958C15.6653 21.3059 15.6659 21.7549 15.6666 22.2656C15.6666 22.3011 15.6667 22.3368 15.6667 22.3729V23.2369C15.6667 23.2582 15.6667 23.2796 15.6667 23.3012L15.6667 28.8655C15.6667 29.3048 15.6667 29.6837 15.6922 29.9959C15.7191 30.3253 15.7785 30.653 15.9392 30.9683C16.1789 31.4387 16.5613 31.8212 17.0317 32.0609C17.347 32.2215 17.6747 32.281 18.0042 32.3079C18.3163 32.3334 18.6953 32.3334 19.1346 32.3333H28.8655C29.3048 32.3334 29.6837 32.3334 29.9959 32.3079C30.3253 32.281 30.653 32.2215 30.9683 32.0609C31.4387 31.8212 31.8212 31.4387 32.0609 30.9683C32.2215 30.653 32.281 30.3253 32.3079 29.9959C32.3334 29.6837 32.3334 29.3048 32.3334 28.8655V23.3012C32.3334 22.8619 32.3334 22.483 32.3079 22.1708C32.281 21.8414 32.2215 21.5137 32.0609 21.1984C31.8212 20.728 31.4387 20.3455 30.9683 20.1058C30.653 19.9452 30.3253 19.8857 29.9959 19.8588C29.6837 19.8333 29.3048 19.8333 28.8655 19.8334L28.1667 19.8334ZM19.1667 21.5C18.6862 21.5 18.376 21.5007 18.1399 21.52C17.9135 21.5385 17.8296 21.5699 17.7884 21.5908C17.6316 21.6707 17.5041 21.7982 17.4242 21.955C17.4032 21.9962 17.3718 22.0802 17.3533 22.3065C17.334 22.5427 17.3334 22.8529 17.3334 23.3334V26.5C17.3334 26.5001 17.3334 26.4999 17.3334 26.5L17.3334 28.8334C17.3334 29.3138 17.334 29.624 17.3533 29.8602C17.3718 30.0865 17.4032 30.1705 17.4242 30.2117C17.5041 30.3685 17.6316 30.496 17.7884 30.5759C17.8296 30.5968 17.9135 30.6282 18.1399 30.6467C18.376 30.666 18.6862 30.6667 19.1667 30.6667H28.8334C29.3138 30.6667 29.6241 30.666 29.8602 30.6467C30.0866 30.6282 30.1705 30.5968 30.2117 30.5759C30.3685 30.496 30.496 30.3685 30.5759 30.2117C30.5969 30.1705 30.6283 30.0865 30.6468 29.8602C30.666 29.624 30.6667 29.3138 30.6667 28.8334V23.3334C30.6667 22.8529 30.666 22.5427 30.6468 22.3065C30.6283 22.0802 30.5969 21.9962 30.5759 21.955C30.496 21.7982 30.3685 21.6707 30.2117 21.5908C30.1705 21.5699 30.0866 21.5385 29.8602 21.52C29.6241 21.5007 29.3138 21.5 28.8334 21.5L19.1667 21.5ZM26.5 26.0834C26.5 25.393 27.0597 24.8334 27.75 24.8334C28.4404 24.8334 29 25.393 29 26.0834C29 26.7737 28.4404 27.3334 27.75 27.3334C27.0597 27.3334 26.5 26.7737 26.5 26.0834Z" fill="white"/>
<defs>
<linearGradient id="paint0_linear_17138_1143" x1="24" y1="0" x2="24" y2="48" gradientUnits="userSpaceOnUse">
<stop/>
<stop offset="1" stop-opacity="0"/>
</linearGradient>
</defs>
</svg>
