<!-- <svg viewBox="0 0 33 32" fill="none" xmlns="http://www.w3.org/2000/svg">
<path fill-rule="evenodd" clip-rule="evenodd" d="M16.875 31C24.607 31 30.875 24.732 30.875 17C30.875 9.26801 24.607 3 16.875 3C9.14301 3 2.875 9.26801 2.875 17C2.875 19.5109 3.536 21.8674 4.69347 23.905L2.875 31L10.1899 29.3038C12.1764 30.3854 14.4539 31 16.875 31ZM16.875 28.8462C23.4175 28.8462 28.7212 23.5425 28.7212 17C28.7212 10.4576 23.4175 5.15385 16.875 5.15385C10.3326 5.15385 5.02885 10.4576 5.02885 17C5.02885 19.5261 5.8195 21.8675 7.16684 23.7902L6.10577 27.7692L10.1549 26.7569C12.0644 28.0746 14.3796 28.8462 16.875 28.8462Z" fill="currentColor"/>
<path d="M28.875 16C28.875 22.6274 23.5024 28 16.875 28C14.3472 28 12.0019 27.2184 10.0677 25.8837L5.96591 26.9091L7.04076 22.8784C5.67592 20.9307 4.875 18.5589 4.875 16C4.875 9.37258 10.2476 4 16.875 4C23.5024 4 28.875 9.37258 28.875 16Z" fill="url(#paint0_linear_13589_248089)"/>
<path fill-rule="evenodd" clip-rule="evenodd" d="M16.875 30C24.607 30 30.875 23.732 30.875 16C30.875 8.26801 24.607 2 16.875 2C9.14301 2 2.875 8.26801 2.875 16C2.875 18.5109 3.536 20.8674 4.69347 22.905L2.875 30L10.1899 28.3038C12.1764 29.3854 14.4539 30 16.875 30ZM16.875 27.8462C23.4175 27.8462 28.7212 22.5425 28.7212 16C28.7212 9.45755 23.4175 4.15385 16.875 4.15385C10.3326 4.15385 5.02885 9.45755 5.02885 16C5.02885 18.5261 5.8195 20.8675 7.16684 22.7902L6.10577 26.7692L10.1549 25.7569C12.0644 27.0746 14.3796 27.8462 16.875 27.8462Z" fill="white"/>
<path d="M13.375 9.50001C13.0422 8.83143 12.5315 8.89062 12.0157 8.89062C11.0938 8.89062 9.65625 9.9949 9.65625 12.0501C9.65625 13.7344 10.3984 15.5782 12.8994 18.3362C15.313 20.998 18.4844 22.3749 21.1172 22.3281C23.75 22.2812 24.2917 20.0156 24.2917 19.2504C24.2917 18.9113 24.0812 18.7421 23.9363 18.6961C23.0391 18.2656 21.3843 17.4633 21.0078 17.3125C20.6313 17.1618 20.4347 17.3657 20.3125 17.4766C19.9711 17.802 19.2943 18.7609 19.0625 18.9766C18.8308 19.1923 18.4853 19.0831 18.3415 19.0016C17.8124 18.7893 16.3779 18.1512 15.2345 17.0427C13.8203 15.6719 13.7373 15.2003 13.4709 14.7804C13.2578 14.4446 13.4142 14.2385 13.4922 14.1484C13.7969 13.7969 14.2176 13.2541 14.4063 12.9844C14.5949 12.7147 14.4452 12.3051 14.3553 12.0501C13.9688 10.9531 13.6413 10.0349 13.375 9.50001Z" fill="white"/>
<defs>
<linearGradient id="paint0_linear_13589_248089" x1="27.375" y1="7" x2="4.875" y2="28" gradientUnits="userSpaceOnUse">
<stop stop-color="#5BD066"/>
<stop offset="1" stop-color="#27B43E"/>
</linearGradient>
</defs>
</svg> -->

<svg viewBox="0 0 33 32" fill="none" xmlns="http://www.w3.org/2000/svg">
<path d="M28.875 16C28.875 22.6274 23.5024 28 16.875 28C14.3472 28 12.0019 27.2184 10.0677 25.8837L5.96591 26.9091L7.04076 22.8784C5.67592 20.9307 4.875 18.5589 4.875 16C4.875 9.37258 10.2476 4 16.875 4C23.5024 4 28.875 9.37258 28.875 16Z" fill="url(#paint0_linear_18378_37254)"/>
<path fill-rule="evenodd" clip-rule="evenodd" d="M16.875 30C24.607 30 30.875 23.732 30.875 16C30.875 8.26801 24.607 2 16.875 2C9.14301 2 2.875 8.26801 2.875 16C2.875 18.5109 3.536 20.8674 4.69347 22.905L2.875 30L10.1899 28.3038C12.1764 29.3854 14.4539 30 16.875 30ZM16.875 27.8462C23.4175 27.8462 28.7212 22.5425 28.7212 16C28.7212 9.45755 23.4175 4.15385 16.875 4.15385C10.3326 4.15385 5.02885 9.45755 5.02885 16C5.02885 18.5261 5.8195 20.8675 7.16684 22.7902L6.10577 26.7692L10.1549 25.7569C12.0644 27.0746 14.3796 27.8462 16.875 27.8462Z" fill="white"/>
<path d="M13.375 9.50038C13.0422 8.8318 12.5315 8.89099 12.0157 8.89099C11.0938 8.89099 9.65625 9.99527 9.65625 12.0504C9.65625 13.7348 10.3984 15.5785 12.8994 18.3366C15.313 20.9984 18.4844 22.3753 21.1172 22.3284C23.75 22.2816 24.2917 20.0159 24.2917 19.2508C24.2917 18.9117 24.0812 18.7425 23.9363 18.6965C23.0391 18.2659 21.3843 17.4636 21.0078 17.3129C20.6313 17.1622 20.4347 17.366 20.3125 17.477C19.9711 17.8023 19.2943 18.7613 19.0625 18.977C18.8308 19.1926 18.4853 19.0835 18.3415 19.0019C17.8124 18.7896 16.3779 18.1516 15.2345 17.0431C13.8203 15.6723 13.7373 15.2006 13.4709 14.7808C13.2578 14.4449 13.4142 14.2389 13.4922 14.1488C13.7969 13.7973 14.2176 13.2545 14.4063 12.9848C14.5949 12.715 14.4452 12.3055 14.3553 12.0504C13.9688 10.9535 13.6413 10.0352 13.375 9.50038Z" fill="white"/>
<defs>
<linearGradient id="paint0_linear_18378_37254" x1="27.375" y1="7" x2="4.875" y2="28" gradientUnits="userSpaceOnUse">
<stop stop-color="#5BD066"/>
<stop offset="1" stop-color="#27B43E"/>
</linearGradient>
</defs>
</svg>

