<svg width="25" height="24" viewBox="0 0 25 24" fill="none" xmlns="http://www.w3.org/2000/svg">
    <g id="file-04">
        <path id="Icon (Stroke)" fill-rule="evenodd" clip-rule="evenodd"
            d="M13.625 3.01991C13.4393 3.00299 13.1641 3.00006 12.6368 3.00006H9.425C8.56842 3.00006 7.98613 3.00084 7.53604 3.03761C7.09762 3.07343 6.87342 3.13836 6.71702 3.21805C6.3407 3.4098 6.03473 3.71576 5.84299 4.09208C5.7633 4.24848 5.69837 4.47269 5.66255 4.9111C5.62578 5.36119 5.625 5.94348 5.625 6.80006V17.2001C5.625 18.0566 5.62578 18.6389 5.66255 19.089C5.69837 19.5274 5.7633 19.7516 5.84299 19.908C6.03473 20.2844 6.3407 20.5903 6.71702 20.7821C6.87342 20.8618 7.09762 20.9267 7.53604 20.9625C7.98613 20.9993 8.56842 21.0001 9.425 21.0001H15.825C16.6816 21.0001 17.2639 20.9993 17.714 20.9625C18.1524 20.9267 18.3766 20.8618 18.533 20.7821C18.9093 20.5903 19.2153 20.2844 19.407 19.908C19.4867 19.7516 19.5516 19.5274 19.5875 19.089C19.6242 18.6389 19.625 18.0566 19.625 17.2001V9.98829C19.625 9.46092 19.6221 9.18576 19.6052 9.00006L16.1931 9.00007C15.9407 9.0001 15.6949 9.00012 15.4868 8.98312C15.2582 8.96444 14.9884 8.92037 14.717 8.78208C14.3407 8.59033 14.0347 8.28437 13.843 7.90804C13.7047 7.63662 13.6606 7.36689 13.6419 7.13829C13.6249 6.93013 13.625 6.68433 13.625 6.43195L13.625 3.01991ZM15.0153 1.34854C14.7904 1.24798 14.5564 1.16826 14.3161 1.11058C13.8534 0.9995 13.3737 0.999729 12.7387 1.00003C12.7051 1.00005 12.6712 1.00006 12.6368 1.00006L9.3837 1.00006C8.57873 1.00005 7.91437 1.00004 7.37318 1.04426C6.81108 1.09018 6.29437 1.18875 5.80904 1.43604C5.05639 1.81953 4.44447 2.43145 4.06097 3.1841C3.81368 3.66944 3.71512 4.18614 3.66919 4.74824C3.62498 5.28943 3.62499 5.95379 3.625 6.75876V17.2414C3.62499 18.0463 3.62498 18.7107 3.66919 19.2519C3.71512 19.814 3.81368 20.3307 4.06097 20.816C4.44447 21.5687 5.05639 22.1806 5.80904 22.5641C6.29437 22.8114 6.81108 22.9099 7.37318 22.9559C7.91437 23.0001 8.57872 23.0001 9.38368 23.0001H15.8663C16.6713 23.0001 17.3356 23.0001 17.8768 22.9559C18.4389 22.9099 18.9556 22.8114 19.441 22.5641C20.1936 22.1806 20.8055 21.5687 21.189 20.816C21.4363 20.3307 21.5349 19.814 21.5808 19.2519C21.625 18.7107 21.625 18.0463 21.625 17.2414V9.98829C21.625 9.95389 21.625 9.91994 21.625 9.88642C21.6253 9.25142 21.6256 8.77162 21.5145 8.30892C21.4568 8.06868 21.3771 7.83466 21.2765 7.60979C21.2699 7.59413 21.2628 7.57867 21.2554 7.56343C21.1903 7.42257 21.1169 7.28542 21.0356 7.15271C20.7869 6.74698 20.4475 6.40788 19.9983 5.95907C19.9746 5.93539 19.9505 5.91139 19.9262 5.88707L16.738 2.69884C16.7137 2.67452 16.6897 2.6505 16.666 2.62678C16.2172 2.17756 15.8781 1.83813 15.4724 1.5895C15.3397 1.50818 15.2025 1.43479 15.0617 1.36964C15.0464 1.36222 15.0309 1.35519 15.0153 1.34854ZM15.625 4.41428V6.40006C15.625 6.69659 15.6258 6.85884 15.6353 6.97543C15.6357 6.98007 15.6361 6.98446 15.6365 6.98861C15.6406 6.989 15.645 6.98938 15.6496 6.98976C15.7662 6.99929 15.9285 7.00006 16.225 7.00006H18.2108L15.625 4.41428Z"
            fill="currentColor" />
    </g>
</svg>