<svg xmlns="http://www.w3.org/2000/svg" viewBox="0 0 24 24" fill="currentColor">
  <path fill-rule="evenodd" clip-rule="evenodd" d="M7.05089 20.863C7.61866 20.9539 8.26466 21 9 21H15C15.7353 21 16.3813 20.9539 16.9491 20.863C16.3485 19.2845 14.4767 17.97 12 17.97C9.52333 17.97 7.6515 19.2845 7.05089 20.863ZM4.86356 21.5357C5.14083 18.2589 8.40708 15.97 12 15.97C15.5929 15.97 18.8592 18.2589 19.1364 21.5357C19.1765 22.0086 18.8785 22.4445 18.4233 22.579C17.4223 22.8748 16.28 23 15 23H9C7.72001 23 6.57771 22.8748 5.57665 22.579C5.12148 22.4445 4.82354 22.0086 4.86356 21.5357Z" fill="currentColor"/>
  <path fill-rule="evenodd" clip-rule="evenodd" d="M2.91789 2.91789C4.32218 1.5136 6.40137 1 9 1H15C17.5986 1 19.6778 1.5136 21.0821 2.91789C22.4864 4.32218 23 6.40137 23 9V15C23 16.9709 22.7064 18.6347 21.9568 19.9375C21.1835 21.2814 19.986 22.1367 18.4124 22.5822C18.1251 22.6635 17.8165 22.6122 17.571 22.4424C17.3255 22.2725 17.1687 22.0018 17.1436 21.7043C16.9808 19.7811 14.9071 17.97 12 17.97C9.09292 17.97 7.01917 19.7811 6.85644 21.7043C6.83127 22.0018 6.67449 22.2725 6.42897 22.4424C6.18346 22.6122 5.87488 22.6635 5.58762 22.5822C4.01403 22.1367 2.81651 21.2814 2.04323 19.9375C1.29364 18.6347 1 16.9709 1 15V9C1 6.40137 1.5136 4.32218 2.91789 2.91789ZM4.33211 4.33211C3.4864 5.17782 3 6.59863 3 9V15C3 16.8091 3.27636 18.0703 3.77677 18.94C4.09748 19.4974 4.53394 19.9354 5.13432 20.2612C6.03206 17.6805 8.89396 15.97 12 15.97C15.106 15.97 17.9679 17.6805 18.8657 20.2612C19.4661 19.9354 19.9025 19.4974 20.2232 18.94C20.7236 18.0703 21 16.8091 21 15V9C21 6.59863 20.5136 5.17782 19.6679 4.33211C18.8222 3.4864 17.4014 3 15 3H9C6.59863 3 5.17782 3.4864 4.33211 4.33211ZM12 8C10.5723 8 9.42 9.1523 9.42 10.58C9.42 12.0114 10.5759 13.17 12 13.17C13.4241 13.17 14.58 12.0114 14.58 10.58C14.58 9.1523 13.4277 8 12 8ZM7.42 10.58C7.42 8.04774 9.46771 6 12 6C14.5323 6 16.58 8.04774 16.58 10.58C16.58 13.1087 14.5359 15.17 12 15.17C9.4641 15.17 7.42 13.1087 7.42 10.58Z" fill="currentColor"/>
  <path fill-rule="evenodd" clip-rule="evenodd" d="M12 8C10.5723 8 9.42 9.1523 9.42 10.58C9.42 12.0114 10.5759 13.17 12 13.17C13.4241 13.17 14.58 12.0114 14.58 10.58C14.58 9.1523 13.4277 8 12 8ZM7.42 10.58C7.42 8.04774 9.46771 6 12 6C14.5323 6 16.58 8.04774 16.58 10.58C16.58 13.1087 14.5359 15.17 12 15.17C9.4641 15.17 7.42 13.1087 7.42 10.58Z" fill="currentColor"/>
</svg>