<svg xmlns="http://www.w3.org/2000/svg" viewBox="0 0 24 24" fill="currentColor">
  <path fill-rule="evenodd" clip-rule="evenodd" d="M12.15 15.5C12.7023 15.5 13.15 15.9477 13.15 16.5V18.6C13.15 19.1523 12.7023 19.6 12.15 19.6C11.5978 19.6 11.15 19.1523 11.15 18.6V16.5C11.15 15.9477 11.5978 15.5 12.15 15.5Z" fill="currentColor"/>
  <path fill-rule="evenodd" clip-rule="evenodd" d="M6.15004 21C6.15004 19.3477 7.49775 18 9.15004 18H15.15C16.8023 18 18.15 19.3477 18.15 21V23H7.15004V22H6.15004V21ZM8.15004 21H16.15C16.15 20.4523 15.6978 20 15.15 20H9.15004C8.60232 20 8.15004 20.4523 8.15004 21Z" fill="currentColor"/>
  <path fill-rule="evenodd" clip-rule="evenodd" d="M5.15004 22C5.15004 21.4477 5.59775 21 6.15004 21H18.15C18.7023 21 19.15 21.4477 19.15 22C19.15 22.5523 18.7023 23 18.15 23H6.15004C5.59775 23 5.15004 22.5523 5.15004 22Z" fill="currentColor"/>
  <path fill-rule="evenodd" clip-rule="evenodd" d="M9.00004 3C7.34232 3 6.00004 4.34228 6.00004 6V9C6.00004 12.3177 8.68232 15 12 15C15.3178 15 18 12.3177 18 9V6C18 4.34228 16.6578 3 15 3H9.00004ZM4.00004 6C4.00004 3.23772 6.23775 1 9.00004 1H15C17.7623 1 20 3.23772 20 6V9C20 13.4223 16.4223 17 12 17C7.57775 17 4.00004 13.4223 4.00004 9V6Z" fill="currentColor"/>
  <path fill-rule="evenodd" clip-rule="evenodd" d="M3.90301 5.48461C3.3867 5.71788 3.04004 6.23201 3.04004 6.85C3.04004 7.75036 3.35455 8.56935 3.90344 9.31593C3.89456 9.16195 3.89004 9.00662 3.89004 8.85V5.85C3.89004 5.72783 3.89434 5.60594 3.90301 5.48461ZM1.04004 6.85C1.04004 4.89772 2.58775 3.35 4.54004 3.35H5.19004C5.52711 3.35 5.8415 3.51981 6.02632 3.8017C6.21114 4.08358 6.24151 4.43961 6.10711 4.74873C5.9664 5.07236 5.89004 5.4452 5.89004 5.85V8.85C5.89004 9.70735 6.0696 10.5133 6.38863 11.2548C6.5435 11.6148 6.47385 12.032 6.21046 12.3221C5.94707 12.6123 5.53848 12.7219 5.16526 12.6024C4.24218 12.307 3.44859 11.7728 2.83293 11.1571C2.82054 11.1447 2.80847 11.132 2.79674 11.119C1.77805 9.98708 1.04004 8.55878 1.04004 6.85Z" fill="currentColor"/>
  <path fill-rule="evenodd" clip-rule="evenodd" d="M17.9738 3.8017C18.1586 3.51981 18.473 3.35 18.81 3.35H19.46C21.4123 3.35 22.96 4.89772 22.96 6.85C22.96 8.55878 22.222 9.98708 21.2033 11.119C21.1916 11.132 21.1795 11.1447 21.1671 11.1571C20.5515 11.7728 19.7579 12.307 18.8348 12.6024C18.4616 12.7219 18.053 12.6123 17.7896 12.3221C17.5262 12.032 17.4566 11.6148 17.6115 11.2548C17.9305 10.5133 18.11 9.70735 18.11 8.85V5.85C18.11 5.4452 18.0337 5.07237 17.893 4.74873C17.7586 4.43961 17.7889 4.08358 17.9738 3.8017ZM20.0971 5.48461C20.1057 5.60595 20.11 5.72783 20.11 5.85V8.85C20.11 9.00662 20.1055 9.16195 20.0966 9.31592C20.6455 8.56935 20.96 7.75036 20.96 6.85C20.96 6.23201 20.6134 5.71788 20.0971 5.48461Z" fill="currentColor"/>
</svg>