<svg viewBox="0 0 24 24" fill="none" xmlns="http://www.w3.org/2000/svg">
<path fill-rule="evenodd" clip-rule="evenodd" d="M14.4601 5.00385C14.3152 5.0553 14.1198 5.14459 13.7905 5.29658L8.29417 7.83335L14.5 7.83335V5.75056C14.5 5.38785 14.4992 5.17301 14.4852 5.01995C14.4844 5.01139 14.4836 5.0034 14.4828 4.99597C14.4758 4.99835 14.4682 5.00097 14.4601 5.00385ZM16.1667 7.83335L16.1667 5.71674C16.1667 5.39935 16.1667 5.10672 16.145 4.86842C16.1224 4.62146 16.0688 4.30992 15.8747 4.02672C15.6196 3.65456 15.2244 3.40175 14.7796 3.32606C14.4411 3.26846 14.1358 3.35033 13.9021 3.43335C13.6766 3.51346 13.4109 3.63611 13.1228 3.76914L5.69999 7.19504C5.66724 7.21016 5.63475 7.2251 5.60253 7.23992C5.13852 7.45331 4.73062 7.6409 4.41933 7.94514C4.14677 8.21151 3.93872 8.53668 3.81108 8.89578C3.66529 9.30592 3.6659 9.75488 3.6666 10.2656C3.66665 10.3011 3.6667 10.3368 3.6667 10.3729V11.2369C3.66669 11.2582 3.66669 11.2796 3.66669 11.3012L3.66669 16.8655C3.66668 17.3048 3.66667 17.6837 3.69217 17.9959C3.71909 18.3253 3.77852 18.653 3.93918 18.9683C4.17886 19.4387 4.56131 19.8212 5.03172 20.0609C5.34704 20.2215 5.67472 20.281 6.00417 20.3079C6.31631 20.3334 6.69527 20.3334 7.13456 20.3333H16.8655C17.3048 20.3334 17.6837 20.3334 17.9959 20.3079C18.3253 20.281 18.653 20.2215 18.9683 20.0609C19.4387 19.8212 19.8212 19.4387 20.0609 18.9683C20.2215 18.653 20.281 18.3253 20.3079 17.9959C20.3334 17.6837 20.3334 17.3048 20.3334 16.8655V11.3012C20.3334 10.8619 20.3334 10.483 20.3079 10.1708C20.281 9.84137 20.2215 9.51369 20.0609 9.19838C19.8212 8.72797 19.4387 8.34552 18.9683 8.10584C18.653 7.94517 18.3253 7.88574 17.9959 7.85883C17.6837 7.83332 17.3048 7.83334 16.8655 7.83335L16.1667 7.83335ZM7.1667 9.50002C6.68623 9.50002 6.37601 9.50067 6.13989 9.51996C5.91351 9.53845 5.82957 9.56985 5.78837 9.59085C5.63157 9.67074 5.50408 9.79822 5.42419 9.95503C5.4032 9.99623 5.3718 10.0802 5.3533 10.3065C5.33401 10.5427 5.33336 10.8529 5.33336 11.3334V14.5C5.33336 14.4999 5.33336 14.5001 5.33336 14.5L5.33336 16.8334C5.33336 17.3138 5.33401 17.624 5.3533 17.8602C5.3718 18.0865 5.4032 18.1705 5.42419 18.2117C5.50408 18.3685 5.63157 18.496 5.78837 18.5759C5.82957 18.5968 5.91351 18.6282 6.13989 18.6467C6.37601 18.666 6.68623 18.6667 7.1667 18.6667H16.8334C17.3138 18.6667 17.6241 18.666 17.8602 18.6467C18.0866 18.6282 18.1705 18.5969 18.2117 18.5759C18.3685 18.496 18.496 18.3685 18.5759 18.2117C18.5969 18.1705 18.6283 18.0865 18.6468 17.8602C18.666 17.624 18.6667 17.3138 18.6667 16.8334V11.3334C18.6667 10.8529 18.666 10.5427 18.6468 10.3065C18.6283 10.0802 18.5969 9.99623 18.5759 9.95503C18.496 9.79822 18.3685 9.67074 18.2117 9.59085C18.1705 9.56985 18.0866 9.53845 17.8602 9.51996C17.6241 9.50067 17.3138 9.50002 16.8334 9.50002L7.1667 9.50002ZM14.5 14.0834C14.5 13.393 15.0597 12.8334 15.75 12.8334C16.4404 12.8334 17 13.393 17 14.0834C17 14.7737 16.4404 15.3334 15.75 15.3334C15.0597 15.3334 14.5 14.7737 14.5 14.0834Z" fill="currentColor"/>
</svg>
