<svg viewBox="0 0 375 112" fill="none" xmlns="http://www.w3.org/2000/svg">
<mask id="mask0_17625_13611" style="mask-type:alpha" maskUnits="userSpaceOnUse" x="163" y="20" width="49" height="48">
<rect width="48" height="48" transform="translate(163.5 20)" fill="url(#paint0_linear_17625_13611)"/>
</mask>
<g mask="url(#mask0_17625_13611)">
<circle cx="187.5" cy="44" r="23.5" fill="#FFF9F0" stroke="#FFE0B5"/>
</g>
<rect x="171.5" y="28" width="32" height="32" rx="16" fill="#FFBB11"/>
<path d="M116.549 95.5078C116.489 94.9496 116.238 94.5149 115.795 94.2038C115.356 93.8928 114.785 93.7372 114.082 93.7372C113.587 93.7372 113.163 93.8118 112.81 93.9609C112.456 94.1101 112.185 94.3125 111.998 94.5682C111.81 94.8239 111.715 95.1158 111.71 95.4439C111.71 95.7166 111.772 95.9531 111.896 96.1534C112.024 96.3537 112.196 96.5241 112.413 96.6648C112.631 96.8011 112.872 96.9162 113.136 97.0099C113.4 97.1037 113.666 97.1825 113.935 97.2464L115.162 97.5533C115.656 97.6683 116.131 97.8239 116.587 98.0199C117.048 98.2159 117.459 98.4631 117.821 98.7614C118.188 99.0597 118.477 99.4197 118.69 99.8416C118.903 100.263 119.01 100.758 119.01 101.325C119.01 102.092 118.814 102.767 118.422 103.351C118.03 103.93 117.463 104.384 116.722 104.712C115.984 105.036 115.092 105.198 114.043 105.198C113.025 105.198 112.141 105.04 111.391 104.725C110.645 104.41 110.061 103.95 109.639 103.344C109.222 102.739 108.996 102.002 108.962 101.133H111.295C111.329 101.589 111.47 101.968 111.717 102.271C111.964 102.573 112.286 102.799 112.682 102.948C113.082 103.097 113.53 103.172 114.024 103.172C114.54 103.172 114.992 103.095 115.379 102.942C115.771 102.784 116.078 102.567 116.3 102.29C116.521 102.009 116.634 101.68 116.639 101.305C116.634 100.964 116.534 100.683 116.338 100.462C116.142 100.236 115.867 100.048 115.514 99.8991C115.164 99.7457 114.755 99.6094 114.286 99.4901L112.797 99.1065C111.719 98.8295 110.867 98.4098 110.24 97.8473C109.618 97.2805 109.307 96.5284 109.307 95.5909C109.307 94.8196 109.516 94.1442 109.933 93.5646C110.355 92.9851 110.928 92.5355 111.653 92.2159C112.377 91.892 113.198 91.7301 114.114 91.7301C115.043 91.7301 115.857 91.892 116.555 92.2159C117.259 92.5355 117.81 92.9808 118.211 93.5518C118.612 94.1186 118.818 94.7706 118.831 95.5078H116.549ZM123.336 99.2472V105H121.022V91.9091H123.285V96.8501H123.4C123.63 96.2962 123.986 95.8594 124.467 95.5398C124.953 95.2159 125.571 95.054 126.321 95.054C127.003 95.054 127.597 95.1967 128.104 95.4822C128.611 95.7678 129.003 96.1854 129.28 96.7351C129.562 97.2848 129.702 97.956 129.702 98.7486V105H127.388V99.1065C127.388 98.446 127.218 97.9325 126.877 97.5661C126.54 97.1953 126.067 97.0099 125.458 97.0099C125.049 97.0099 124.682 97.0994 124.359 97.2784C124.039 97.4531 123.788 97.7067 123.604 98.0391C123.425 98.3714 123.336 98.7741 123.336 99.2472ZM134.886 105.198C134.264 105.198 133.704 105.087 133.205 104.866C132.711 104.64 132.319 104.308 132.029 103.869C131.744 103.43 131.601 102.888 131.601 102.245C131.601 101.691 131.703 101.233 131.908 100.871C132.112 100.509 132.391 100.219 132.745 100.001C133.099 99.7841 133.497 99.62 133.94 99.5092C134.388 99.3942 134.85 99.3111 135.327 99.2599C135.903 99.2003 136.369 99.147 136.727 99.1001C137.085 99.049 137.345 98.9723 137.507 98.87C137.673 98.7635 137.756 98.5994 137.756 98.3778V98.3395C137.756 97.858 137.614 97.4851 137.328 97.2209C137.043 96.9567 136.631 96.8246 136.094 96.8246C135.528 96.8246 135.078 96.9482 134.746 97.1953C134.418 97.4425 134.196 97.7344 134.081 98.071L131.92 97.7642C132.091 97.1676 132.372 96.669 132.764 96.2685C133.156 95.8636 133.636 95.5611 134.202 95.3608C134.769 95.1562 135.396 95.054 136.082 95.054C136.555 95.054 137.025 95.1094 137.494 95.2202C137.963 95.331 138.391 95.5142 138.779 95.7699C139.167 96.0213 139.478 96.3643 139.712 96.799C139.951 97.2337 140.07 97.777 140.07 98.429V105H137.846V103.651H137.769C137.628 103.924 137.43 104.18 137.175 104.418C136.923 104.653 136.606 104.842 136.222 104.987C135.843 105.128 135.398 105.198 134.886 105.198ZM135.487 103.498C135.952 103.498 136.354 103.406 136.695 103.223C137.036 103.036 137.298 102.788 137.481 102.482C137.669 102.175 137.763 101.84 137.763 101.478V100.321C137.69 100.381 137.567 100.436 137.392 100.487C137.222 100.538 137.03 100.583 136.817 100.621C136.604 100.66 136.393 100.694 136.184 100.724C135.975 100.754 135.794 100.779 135.641 100.8C135.295 100.847 134.986 100.924 134.714 101.031C134.441 101.137 134.226 101.286 134.068 101.478C133.91 101.665 133.832 101.908 133.832 102.207C133.832 102.633 133.987 102.955 134.298 103.172C134.609 103.389 135.006 103.498 135.487 103.498ZM142.397 105V95.1818H144.641V96.8182H144.743C144.922 96.2514 145.229 95.8146 145.663 95.5078C146.102 95.1967 146.603 95.0412 147.165 95.0412C147.293 95.0412 147.436 95.0476 147.594 95.0604C147.756 95.0689 147.89 95.0838 147.996 95.1051V97.2337C147.898 97.1996 147.743 97.1697 147.53 97.1442C147.321 97.1143 147.119 97.0994 146.922 97.0994C146.501 97.0994 146.121 97.1911 145.785 97.3743C145.452 97.5533 145.19 97.8026 144.998 98.1222C144.807 98.4418 144.711 98.8104 144.711 99.228V105H142.397ZM153.476 105.192C152.492 105.192 151.641 104.987 150.926 104.578C150.214 104.165 149.666 103.581 149.283 102.827C148.899 102.068 148.707 101.175 148.707 100.148C148.707 99.1385 148.899 98.2521 149.283 97.4893C149.671 96.7223 150.212 96.1257 150.906 95.6996C151.601 95.2692 152.417 95.054 153.354 95.054C153.96 95.054 154.531 95.152 155.068 95.348C155.609 95.5398 156.086 95.8381 156.499 96.2429C156.917 96.6477 157.245 97.1634 157.484 97.7898C157.722 98.4119 157.842 99.1534 157.842 100.014V100.724H149.794V99.1641H155.624C155.619 98.7209 155.524 98.3267 155.336 97.9815C155.149 97.6321 154.886 97.3572 154.55 97.157C154.217 96.9567 153.83 96.8565 153.386 96.8565C152.913 96.8565 152.498 96.9716 152.14 97.2017C151.782 97.4276 151.503 97.7259 151.303 98.0966C151.107 98.4631 151.006 98.8658 151.002 99.3047V100.666C151.002 101.237 151.107 101.727 151.315 102.136C151.524 102.541 151.816 102.852 152.191 103.07C152.566 103.283 153.005 103.389 153.508 103.389C153.845 103.389 154.149 103.342 154.422 103.249C154.695 103.151 154.931 103.008 155.131 102.82C155.332 102.633 155.483 102.401 155.585 102.124L157.746 102.366C157.609 102.937 157.35 103.436 156.966 103.862C156.587 104.284 156.101 104.612 155.509 104.847C154.916 105.077 154.239 105.192 153.476 105.192ZM166.29 105L163.516 95.1818H165.875L167.601 102.085H167.69L169.454 95.1818H171.788L173.552 102.047H173.648L175.348 95.1818H177.713L174.932 105H172.523L170.682 98.3651H170.547L168.707 105H166.29ZM179.329 105V95.1818H181.642V105H179.329ZM180.492 93.7884C180.125 93.7884 179.81 93.6669 179.546 93.424C179.282 93.1768 179.15 92.8807 179.15 92.5355C179.15 92.1861 179.282 91.8899 179.546 91.647C179.81 91.3999 180.125 91.2763 180.492 91.2763C180.863 91.2763 181.178 91.3999 181.438 91.647C181.702 91.8899 181.834 92.1861 181.834 92.5355C181.834 92.8807 181.702 93.1768 181.438 93.424C181.178 93.6669 180.863 93.7884 180.492 93.7884ZM188.925 95.1818V96.9716H183.28V95.1818H188.925ZM184.674 92.8295H186.988V102.047C186.988 102.358 187.035 102.597 187.128 102.763C187.226 102.925 187.354 103.036 187.512 103.095C187.67 103.155 187.844 103.185 188.036 103.185C188.181 103.185 188.313 103.174 188.432 103.153C188.556 103.131 188.65 103.112 188.714 103.095L189.104 104.904C188.98 104.947 188.803 104.994 188.573 105.045C188.347 105.096 188.07 105.126 187.742 105.134C187.163 105.151 186.641 105.064 186.176 104.872C185.712 104.676 185.343 104.374 185.07 103.964C184.802 103.555 184.67 103.044 184.674 102.43V92.8295ZM193.385 99.2472V105H191.071V91.9091H193.334V96.8501H193.449C193.679 96.2962 194.035 95.8594 194.516 95.5398C195.002 95.2159 195.62 95.054 196.37 95.054C197.052 95.054 197.646 95.1967 198.153 95.4822C198.66 95.7678 199.052 96.1854 199.329 96.7351C199.611 97.2848 199.751 97.956 199.751 98.7486V105H197.437V99.1065C197.437 98.446 197.267 97.9325 196.926 97.5661C196.589 97.1953 196.116 97.0099 195.507 97.0099C195.098 97.0099 194.731 97.0994 194.407 97.2784C194.088 97.4531 193.836 97.7067 193.653 98.0391C193.474 98.3714 193.385 98.7741 193.385 99.2472ZM211.548 95.1818V96.9716H205.744V95.1818H211.548ZM207.195 105V94.255C207.195 93.5945 207.331 93.0447 207.604 92.6058C207.881 92.1669 208.252 91.8388 208.716 91.6214C209.18 91.4041 209.696 91.2955 210.263 91.2955C210.663 91.2955 211.019 91.3274 211.33 91.3913C211.641 91.4553 211.872 91.5128 212.021 91.5639L211.56 93.3537C211.462 93.3239 211.339 93.294 211.19 93.2642C211.041 93.2301 210.874 93.2131 210.691 93.2131C210.261 93.2131 209.956 93.3175 209.777 93.5263C209.602 93.7308 209.515 94.0249 209.515 94.4084V105H207.195ZM213.36 105V95.1818H215.603V96.8182H215.706C215.885 96.2514 216.191 95.8146 216.626 95.5078C217.065 95.1967 217.566 95.0412 218.128 95.0412C218.256 95.0412 218.399 95.0476 218.557 95.0604C218.718 95.0689 218.853 95.0838 218.959 95.1051V97.2337C218.861 97.1996 218.706 97.1697 218.493 97.1442C218.284 97.1143 218.081 97.0994 217.885 97.0994C217.464 97.0994 217.084 97.1911 216.748 97.3743C216.415 97.5533 216.153 97.8026 215.961 98.1222C215.77 98.4418 215.674 98.8104 215.674 99.228V105H213.36ZM220.497 105V95.1818H222.81V105H220.497ZM221.66 93.7884C221.293 93.7884 220.978 93.6669 220.714 93.424C220.45 93.1768 220.318 92.8807 220.318 92.5355C220.318 92.1861 220.45 91.8899 220.714 91.647C220.978 91.3999 221.293 91.2763 221.66 91.2763C222.031 91.2763 222.346 91.3999 222.606 91.647C222.87 91.8899 223.002 92.1861 223.002 92.5355C223.002 92.8807 222.87 93.1768 222.606 93.424C222.346 93.6669 222.031 93.7884 221.66 93.7884ZM229.536 105.192C228.552 105.192 227.702 104.987 226.986 104.578C226.274 104.165 225.727 103.581 225.343 102.827C224.96 102.068 224.768 101.175 224.768 100.148C224.768 99.1385 224.96 98.2521 225.343 97.4893C225.731 96.7223 226.272 96.1257 226.967 95.6996C227.661 95.2692 228.478 95.054 229.415 95.054C230.02 95.054 230.591 95.152 231.128 95.348C231.669 95.5398 232.147 95.8381 232.56 96.2429C232.978 96.6477 233.306 97.1634 233.544 97.7898C233.783 98.4119 233.902 99.1534 233.902 100.014V100.724H225.855V99.1641H231.684C231.68 98.7209 231.584 98.3267 231.397 97.9815C231.209 97.6321 230.947 97.3572 230.61 97.157C230.278 96.9567 229.89 96.8565 229.447 96.8565C228.974 96.8565 228.559 96.9716 228.201 97.2017C227.843 97.4276 227.563 97.7259 227.363 98.0966C227.167 98.4631 227.067 98.8658 227.063 99.3047V100.666C227.063 101.237 227.167 101.727 227.376 102.136C227.585 102.541 227.877 102.852 228.252 103.07C228.627 103.283 229.066 103.389 229.568 103.389C229.905 103.389 230.21 103.342 230.483 103.249C230.755 103.151 230.992 103.008 231.192 102.82C231.392 102.633 231.544 102.401 231.646 102.124L233.806 102.366C233.67 102.937 233.41 103.436 233.027 103.862C232.647 104.284 232.161 104.612 231.569 104.847C230.977 105.077 230.299 105.192 229.536 105.192ZM238.174 99.2472V105H235.86V95.1818H238.071V96.8501H238.187C238.412 96.3004 238.772 95.8636 239.267 95.5398C239.765 95.2159 240.381 95.054 241.114 95.054C241.792 95.054 242.382 95.1989 242.885 95.4886C243.392 95.7784 243.784 96.1982 244.061 96.7479C244.342 97.2976 244.481 97.9645 244.476 98.7486V105H242.162V99.1065C242.162 98.4503 241.992 97.9368 241.651 97.5661C241.314 97.1953 240.848 97.0099 240.251 97.0099C239.846 97.0099 239.486 97.0994 239.171 97.2784C238.86 97.4531 238.615 97.7067 238.436 98.0391C238.261 98.3714 238.174 98.7741 238.174 99.2472ZM250.472 105.173C249.701 105.173 249.01 104.974 248.401 104.578C247.792 104.182 247.31 103.607 246.956 102.852C246.603 102.098 246.426 101.182 246.426 100.104C246.426 99.0128 246.605 98.0923 246.963 97.3423C247.325 96.5881 247.813 96.0192 248.427 95.6357C249.04 95.2479 249.724 95.054 250.478 95.054C251.054 95.054 251.527 95.152 251.897 95.348C252.268 95.5398 252.562 95.772 252.78 96.0447C252.997 96.3132 253.165 96.5668 253.285 96.8054H253.38V91.9091H255.701V105H253.425V103.453H253.285C253.165 103.692 252.993 103.945 252.767 104.214C252.541 104.478 252.243 104.704 251.872 104.891C251.501 105.079 251.035 105.173 250.472 105.173ZM251.118 103.274C251.608 103.274 252.025 103.142 252.37 102.878C252.716 102.609 252.978 102.237 253.157 101.759C253.336 101.282 253.425 100.726 253.425 100.091C253.425 99.456 253.336 98.9041 253.157 98.4354C252.982 97.9666 252.722 97.6023 252.377 97.3423C252.036 97.0824 251.616 96.9524 251.118 96.9524C250.602 96.9524 250.172 97.0866 249.826 97.3551C249.481 97.6236 249.221 97.9943 249.047 98.4673C248.872 98.9403 248.785 99.4815 248.785 100.091C248.785 100.705 248.872 101.252 249.047 101.734C249.226 102.211 249.488 102.588 249.833 102.865C250.182 103.138 250.611 103.274 251.118 103.274ZM265.926 97.777L263.817 98.0071C263.757 97.794 263.653 97.5938 263.504 97.4062C263.359 97.2188 263.163 97.0675 262.916 96.9524C262.669 96.8374 262.366 96.7798 262.008 96.7798C261.527 96.7798 261.122 96.8842 260.794 97.093C260.47 97.3018 260.31 97.5724 260.314 97.9048C260.31 98.1903 260.414 98.4226 260.627 98.6016C260.845 98.7805 261.203 98.9276 261.701 99.0426L263.376 99.4006C264.305 99.6009 264.995 99.9183 265.447 100.353C265.903 100.788 266.133 101.357 266.137 102.06C266.133 102.678 265.952 103.223 265.594 103.696C265.24 104.165 264.748 104.531 264.117 104.795C263.487 105.06 262.762 105.192 261.944 105.192C260.742 105.192 259.775 104.94 259.042 104.438C258.309 103.93 257.872 103.225 257.732 102.322L259.988 102.104C260.09 102.548 260.308 102.882 260.64 103.108C260.973 103.334 261.405 103.447 261.938 103.447C262.487 103.447 262.929 103.334 263.261 103.108C263.598 102.882 263.766 102.603 263.766 102.271C263.766 101.989 263.657 101.757 263.44 101.574C263.227 101.391 262.894 101.25 262.443 101.152L260.768 100.8C259.826 100.604 259.13 100.274 258.678 99.8097C258.226 99.3409 258.002 98.7486 258.007 98.0327C258.002 97.4276 258.166 96.9034 258.499 96.4602C258.835 96.0128 259.302 95.6676 259.899 95.4247C260.5 95.1776 261.192 95.054 261.976 95.054C263.127 95.054 264.032 95.299 264.693 95.7891C265.358 96.2791 265.769 96.9418 265.926 97.777Z" fill="#181D27"/>
<defs>
<linearGradient id="paint0_linear_17625_13611" x1="24" y1="0" x2="24" y2="48" gradientUnits="userSpaceOnUse">
<stop/>
<stop offset="1" stop-opacity="0"/>
</linearGradient>
</defs>
</svg>
