<svg viewBox="0 0 25 25" fill="none" xmlns="http://www.w3.org/2000/svg">
<path fill-rule="evenodd" clip-rule="evenodd" d="M8.5 1.6463C9.05229 1.6463 9.5 2.09402 9.5 2.6463V3.6463H15.5V2.6463C15.5 2.09402 15.9477 1.6463 16.5 1.6463C17.0523 1.6463 17.5 2.09402 17.5 2.6463V3.64793C17.9755 3.65119 18.391 3.66102 18.7518 3.6905C19.3139 3.73642 19.8306 3.83498 20.316 4.08228C21.0686 4.46577 21.6805 5.07769 22.064 5.83034C22.3113 6.31567 22.4099 6.83238 22.4558 7.39447C22.5 7.93567 22.5 8.60002 22.5 9.40498V17.8876C22.5 18.6926 22.5 19.3569 22.4558 19.8981C22.4099 20.4602 22.3113 20.9769 22.064 21.4623C21.6805 22.2149 21.0686 22.8268 20.316 23.2103C19.8306 23.4576 19.3139 23.5562 18.7518 23.6021C18.2106 23.6463 17.5463 23.6463 16.7413 23.6463H8.25868C7.45372 23.6463 6.78937 23.6463 6.24818 23.6021C5.68608 23.5562 5.16937 23.4576 4.68404 23.2103C3.93139 22.8268 3.31947 22.2149 2.93597 21.4623C2.68868 20.9769 2.59012 20.4602 2.54419 19.8981C2.49998 19.3569 2.49999 18.6926 2.5 17.8876V9.405C2.49999 8.60003 2.49998 7.93567 2.54419 7.39447C2.59012 6.83238 2.68868 6.31567 2.93597 5.83034C3.31947 5.07769 3.93139 4.46577 4.68404 4.08228C5.16937 3.83498 5.68608 3.73642 6.24818 3.6905C6.60898 3.66102 7.02454 3.65119 7.5 3.64793V2.6463C7.5 2.09402 7.94772 1.6463 8.5 1.6463ZM7.5 5.64806C7.05447 5.65119 6.70463 5.65987 6.41104 5.68385C5.97262 5.71967 5.74842 5.7846 5.59202 5.86429C5.2157 6.05604 4.90973 6.362 4.71799 6.73832C4.6383 6.89472 4.57337 7.11892 4.53755 7.55734C4.50078 8.00743 4.5 8.58972 4.5 9.4463V9.6463H20.5V9.4463C20.5 8.58972 20.4992 8.00743 20.4625 7.55734C20.4266 7.11892 20.3617 6.89472 20.282 6.73832C20.0903 6.362 19.7843 6.05604 19.408 5.86429C19.2516 5.7846 19.0274 5.71967 18.589 5.68385C18.2954 5.65987 17.9455 5.65119 17.5 5.64806V6.6463C17.5 7.19859 17.0523 7.6463 16.5 7.6463C15.9477 7.6463 15.5 7.19859 15.5 6.6463V5.6463H9.5V6.6463C9.5 7.19859 9.05229 7.6463 8.5 7.6463C7.94772 7.6463 7.5 7.19859 7.5 6.6463V5.64806ZM20.5 11.6463H4.5V17.8463C4.5 18.7029 4.50078 19.2852 4.53755 19.7353C4.57337 20.1737 4.6383 20.3979 4.71799 20.5543C4.90973 20.9306 5.2157 21.2366 5.59202 21.4283C5.74842 21.508 5.97262 21.5729 6.41104 21.6087C6.86113 21.6455 7.44342 21.6463 8.3 21.6463H16.7C17.5566 21.6463 18.1389 21.6455 18.589 21.6087C19.0274 21.5729 19.2516 21.508 19.408 21.4283C19.7843 21.2366 20.0903 20.9306 20.282 20.5543C20.3617 20.3979 20.4266 20.1737 20.4625 19.7353C20.4992 19.2852 20.5 18.7029 20.5 17.8463V11.6463Z" fill="currentColor"/>
</svg>
