<svg viewBox="0 0 20 20" fill="none" xmlns="http://www.w3.org/2000/svg">
<g clip-path="url(#clip0_17415_17280)">
<path fill-rule="evenodd" clip-rule="evenodd" d="M4.30113 0.833009L10.0266 0.833009C10.3921 0.832998 10.7075 0.832989 10.9686 0.850801C11.2434 0.869554 11.5184 0.910807 11.79 1.02331C12.4025 1.27705 12.8892 1.76373 13.143 2.3763C13.2555 2.64791 13.2967 2.92283 13.3155 3.19769C13.3333 3.45874 13.3333 3.77414 13.3333 4.13969V4.16634C13.3333 4.62658 12.9602 4.99968 12.4999 4.99968C12.0397 4.99968 11.6666 4.62658 11.6666 4.16634C11.6666 3.76666 11.6661 3.50863 11.6527 3.31114C11.6397 3.12114 11.6175 3.04878 11.6032 3.01411C11.5186 2.80992 11.3563 2.64769 11.1522 2.56311C11.1175 2.54875 11.0451 2.52656 10.8551 2.5136C10.6576 2.50013 10.3996 2.49968 9.99992 2.49968H4.33325C3.85279 2.49968 3.54256 2.50032 3.30645 2.51962C3.08006 2.53811 2.99613 2.56951 2.95493 2.5905C2.79813 2.6704 2.67064 2.79788 2.59075 2.95468C2.56975 2.99589 2.53836 3.07982 2.51986 3.30621C2.50057 3.54232 2.49992 3.85255 2.49992 4.33301V9.99968C2.49992 10.3994 2.50037 10.6574 2.51385 10.8549C2.52681 11.0449 2.54899 11.1172 2.56335 11.1519C2.64793 11.3561 2.81016 11.5183 3.01435 11.6029C3.04903 11.6173 3.12139 11.6395 3.31139 11.6524C3.50887 11.6659 3.7669 11.6663 4.16659 11.6663C4.62682 11.6663 4.99992 12.0394 4.99992 12.4997C4.99992 12.9599 4.62682 13.333 4.16659 13.333H4.13993C3.77439 13.333 3.45898 13.333 3.19793 13.3152C2.92308 13.2965 2.64815 13.2552 2.37655 13.1427C1.76397 12.889 1.27729 12.4023 1.02355 11.7897C0.911051 11.5181 0.869798 11.2432 0.851045 10.9683C0.833234 10.7073 0.833243 10.3919 0.833253 10.0263L0.833253 4.30089C0.833238 3.8616 0.833225 3.48263 0.858728 3.17049C0.885645 2.84103 0.945075 2.51335 1.10574 2.19803C1.34542 1.72763 1.72787 1.34518 2.19828 1.10549C2.51359 0.944831 2.84128 0.885401 3.17073 0.858484C3.48287 0.832981 3.86184 0.832994 4.30113 0.833009ZM10.1345 6.66634H15.6987C16.138 6.66633 16.517 6.66631 16.8291 6.69182C17.1586 6.71873 17.4862 6.77816 17.8016 6.93883C18.272 7.17851 18.6544 7.56096 18.8941 8.03137C19.0548 8.34668 19.1142 8.67437 19.1411 9.00382C19.1666 9.31596 19.1666 9.69492 19.1666 10.1342V15.6985C19.1666 16.1378 19.1666 16.5167 19.1411 16.8289C19.1142 17.1583 19.0548 17.486 18.8941 17.8013C18.6544 18.2717 18.272 18.6542 17.8016 18.8939C17.4862 19.0545 17.1586 19.114 16.8291 19.1409C16.517 19.1664 16.138 19.1664 15.6987 19.1663H10.1344C9.69517 19.1664 9.3162 19.1664 9.00406 19.1409C8.67461 19.114 8.34693 19.0545 8.03161 18.8939C7.56121 18.6542 7.17875 18.2717 6.93907 17.8013C6.77841 17.486 6.71898 17.1583 6.69206 16.8289C6.66656 16.5167 6.66657 16.1378 6.66659 15.6985V10.1342C6.66657 9.69493 6.66656 9.31596 6.69206 9.00382C6.71898 8.67437 6.77841 8.34668 6.93907 8.03137C7.17875 7.56096 7.5612 7.17851 8.03161 6.93883C8.34693 6.77816 8.67461 6.71873 9.00406 6.69182C9.31621 6.66631 9.69518 6.66633 10.1345 6.66634ZM9.13978 8.35295C8.9134 8.37145 8.82946 8.40284 8.78826 8.42384C8.63146 8.50373 8.50398 8.63122 8.42408 8.78802C8.40309 8.82922 8.37169 8.91315 8.35319 9.13954C8.3339 9.37565 8.33325 9.68588 8.33325 10.1663V15.6663C8.33325 16.1468 8.3339 16.457 8.35319 16.6931C8.37169 16.9195 8.40309 17.0035 8.42408 17.0447C8.50398 17.2015 8.63146 17.329 8.78826 17.4088C8.82946 17.4298 8.9134 17.4612 9.13978 17.4797C9.3759 17.499 9.68613 17.4997 10.1666 17.4997H15.6666C16.147 17.4997 16.4573 17.499 16.6934 17.4797C16.9198 17.4612 17.0037 17.4298 17.0449 17.4088C17.2017 17.329 17.3292 17.2015 17.4091 17.0447C17.4301 17.0035 17.4615 16.9195 17.48 16.6931C17.4993 16.457 17.4999 16.1468 17.4999 15.6663V10.1663C17.4999 9.68588 17.4993 9.37565 17.48 9.13954C17.4615 8.91315 17.4301 8.82922 17.4091 8.78802C17.3292 8.63121 17.2017 8.50373 17.0449 8.42384C17.0037 8.40284 16.9198 8.37145 16.6934 8.35295C16.4573 8.33366 16.147 8.33301 15.6666 8.33301H10.1666C9.68613 8.33301 9.3759 8.33366 9.13978 8.35295Z" fill="currentColor"/>
</g>
<defs>
<clipPath id="clip0_17415_17280">
<rect width="20" height="20" fill="white"/>
</clipPath>
</defs>
</svg>
