<svg viewBox="0 0 16 17" fill="none" xmlns="http://www.w3.org/2000/svg">
<path fill-rule="evenodd" clip-rule="evenodd" d="M5.17251 2.0708L6.66671 2.0708C7.0349 2.0708 7.33338 2.36928 7.33338 2.73747C7.33338 3.10566 7.0349 3.40413 6.66671 3.40413H5.20004C4.62899 3.40413 4.24079 3.40465 3.94073 3.42917C3.64846 3.45305 3.49899 3.49633 3.39472 3.54946C3.14384 3.67729 2.93986 3.88126 2.81203 4.13215C2.75891 4.23641 2.71562 4.38588 2.69174 4.67816C2.66723 4.97822 2.66671 5.36642 2.66671 5.93747V11.5375C2.66671 12.1085 2.66723 12.4967 2.69174 12.7968C2.71562 13.0891 2.75891 13.2385 2.81203 13.3428C2.93986 13.5937 3.14384 13.7976 3.39472 13.9255C3.49899 13.9786 3.64846 14.0219 3.94073 14.0458C4.24079 14.0703 4.62899 14.0708 5.20004 14.0708H10.8C11.3711 14.0708 11.7593 14.0703 12.0594 14.0458C12.3516 14.0219 12.5011 13.9786 12.6054 13.9255C12.8562 13.7976 13.0602 13.5937 13.1881 13.3428C13.2412 13.2385 13.2845 13.0891 13.3083 12.7968C13.3329 12.4967 13.3334 12.1085 13.3334 11.5375V10.0708C13.3334 9.70261 13.6319 9.40414 14 9.40414C14.3682 9.40414 14.6667 9.70261 14.6667 10.0708V11.565C14.6667 12.1017 14.6667 12.5446 14.6372 12.9054C14.6066 13.2801 14.5409 13.6246 14.3761 13.9481C14.1204 14.4499 13.7124 14.8578 13.2107 15.1135C12.8871 15.2783 12.5427 15.3441 12.1679 15.3747C11.8071 15.4042 11.3642 15.4041 10.8276 15.4041H5.17249C4.63585 15.4041 4.19295 15.4042 3.83216 15.3747C3.45743 15.3441 3.11296 15.2783 2.7894 15.1135C2.28763 14.8578 1.87969 14.4499 1.62402 13.9481C1.45916 13.6246 1.39345 13.2801 1.36284 12.9054C1.33336 12.5446 1.33337 12.1016 1.33337 11.565V5.90994C1.33337 5.37329 1.33336 4.93038 1.36284 4.56958C1.39345 4.19485 1.45916 3.85038 1.62402 3.52683C1.87969 3.02506 2.28763 2.61711 2.7894 2.36145C3.11296 2.19659 3.45743 2.13088 3.83216 2.10026C4.19295 2.07079 4.63586 2.07079 5.17251 2.0708ZM9.33336 2.73747C9.33336 2.36928 9.63184 2.07081 10 2.07081H14C14.3682 2.07081 14.6667 2.36928 14.6667 2.73747L14.6667 6.73747C14.6667 7.10566 14.3682 7.40414 14 7.40414C13.6318 7.40414 13.3334 7.10567 13.3334 6.73748L13.3334 4.34695L8.47145 9.20887C8.2111 9.46922 7.78899 9.46922 7.52864 9.20887C7.26829 8.94852 7.26829 8.52641 7.52864 8.26606L12.3906 3.40414H10C9.63184 3.40414 9.33336 3.10566 9.33336 2.73747Z" fill="currentColor"/>
</svg>
