<svg viewBox="0 0 25 25" fill="none" xmlns="http://www.w3.org/2000/svg">
<path fill-rule="evenodd" clip-rule="evenodd" d="M12.25 3.6463C7.27944 3.6463 3.25 7.67574 3.25 12.6463C3.25 14.8674 4.05461 16.9007 5.38826 18.4704C6.3047 17.3572 7.69368 16.6463 9.25 16.6463H15.25C16.8063 16.6463 18.1953 17.3572 19.1117 18.4704C20.4454 16.9007 21.25 14.8674 21.25 12.6463C21.25 7.67574 17.2206 3.6463 12.25 3.6463ZM19.6202 20.8122C21.8492 18.7991 23.25 15.8863 23.25 12.6463C23.25 6.57117 18.3251 1.6463 12.25 1.6463C6.17487 1.6463 1.25 6.57117 1.25 12.6463C1.25 15.8863 2.65079 18.7991 4.87979 20.8122C4.89139 20.8232 4.90328 20.8338 4.91545 20.8443C6.8617 22.5867 9.43211 23.6463 12.25 23.6463C15.0679 23.6463 17.6383 22.5867 19.5845 20.8443C19.5967 20.8338 19.6086 20.8232 19.6202 20.8122ZM17.6506 19.8465C17.1027 19.1169 16.2306 18.6463 15.25 18.6463H9.25C8.26943 18.6463 7.39734 19.1169 6.84938 19.8465C8.35368 20.9766 10.2236 21.6463 12.25 21.6463C14.2764 21.6463 16.1463 20.9766 17.6506 19.8465ZM12.25 7.1463C10.5931 7.1463 9.25 8.48945 9.25 10.1463C9.25 11.8032 10.5931 13.1463 12.25 13.1463C13.9069 13.1463 15.25 11.8032 15.25 10.1463C15.25 8.48945 13.9069 7.1463 12.25 7.1463ZM7.25 10.1463C7.25 7.38488 9.48858 5.1463 12.25 5.1463C15.0114 5.1463 17.25 7.38488 17.25 10.1463C17.25 12.9077 15.0114 15.1463 12.25 15.1463C9.48858 15.1463 7.25 12.9077 7.25 10.1463Z" fill="currentColor"/>
</svg>
