<svg viewBox="0 0 25 25" fill="currentColor" xmlns="http://www.w3.org/2000/svg">
<path d="M12.3483 6.12841C10.4568 6.12839 8.62434 6.78699 7.16563 7.99108C5.70692 9.19517 4.713 10.8696 4.35457 12.7268L3.00375 19.7239C2.91681 20.1743 2.93054 20.6384 3.04394 21.0829C3.15734 21.5274 3.36761 21.9413 3.65971 22.295C3.9518 22.6487 4.31849 22.9335 4.73352 23.1289C5.14854 23.3244 5.60165 23.4256 6.06038 23.4254H18.6378C19.0965 23.4255 19.5495 23.3241 19.9644 23.1287C20.3793 22.9332 20.7459 22.6484 21.0379 22.2947C21.3299 21.941 21.5401 21.5271 21.6535 21.0827C21.7668 20.6382 21.7805 20.1742 21.6936 19.7239L20.3428 12.7268C19.9843 10.8695 18.9903 9.19492 17.5314 7.99082C16.0725 6.78671 14.2399 6.1282 12.3483 6.12841ZM12.3483 7.77574C13.857 7.77577 15.3186 8.30112 16.4821 9.26156C17.6456 10.222 18.4384 11.5576 18.7243 13.039L20.0751 20.036C20.116 20.248 20.1096 20.4665 20.0562 20.6757C20.0028 20.8849 19.9038 21.0798 19.7663 21.2463C19.6287 21.4127 19.4561 21.5467 19.2607 21.6387C19.0654 21.7306 18.8521 21.7782 18.6361 21.7781H6.05956C5.84377 21.778 5.63066 21.7302 5.43549 21.6382C5.24032 21.5461 5.0679 21.4121 4.93056 21.2456C4.79323 21.0792 4.69438 20.8844 4.64108 20.6753C4.58779 20.4662 4.58136 20.2479 4.62226 20.036L5.97225 13.039C6.25815 11.5576 7.05092 10.222 8.21443 9.26156C9.37793 8.30112 10.8396 7.77577 12.3483 7.77574Z" fill="currentColor"/>
<path d="M14.9703 2.01007H9.72687C9.47236 2.01011 9.22159 2.07138 8.99574 2.18872C8.76989 2.30605 8.57559 2.476 8.42924 2.68422C8.28288 2.89245 8.18878 3.13282 8.15486 3.38506C8.12095 3.6373 8.14822 3.894 8.23438 4.13349L8.98639 6.22231C9.15018 6.6773 9.4504 7.07065 9.84606 7.34868C10.2417 7.6267 10.7135 7.77584 11.1971 7.77574H13.5001C13.9837 7.77584 14.4555 7.6267 14.8511 7.34868C15.2468 7.07065 15.547 6.6773 15.7108 6.22231L16.4628 4.13349C16.549 3.894 16.5762 3.6373 16.5423 3.38506C16.5084 3.13282 16.4143 2.89245 16.268 2.68422C16.1216 2.476 15.9273 2.30605 15.7015 2.18872C15.4756 2.07138 15.2248 2.01011 14.9703 2.01007ZM9.81418 3.65741H14.8822L14.1607 5.66468C14.1117 5.80057 14.0219 5.91802 13.9037 6.00101C13.7855 6.08401 13.6445 6.12849 13.5001 6.12841H11.1971L11.0991 6.12182C10.9726 6.10404 10.8534 6.05207 10.7542 5.97151C10.6551 5.89095 10.5798 5.78487 10.5365 5.66468L9.81418 3.65741Z" fill="currentColor"/>
<path d="M15.958 13.3229V14.0159H9.35256V13.3229H15.958ZM15.958 14.2458V14.9388H9.35256V14.2458H15.958ZM12.6758 16.287H11.0378V15.0585H12.6758C12.9047 15.0585 13.0894 15.0123 13.2301 14.9199C13.3729 14.8275 13.4779 14.7099 13.5451 14.5671C13.6123 14.4243 13.647 14.2773 13.6491 14.1261C13.647 13.9665 13.6123 13.8101 13.5451 13.6568C13.48 13.5014 13.3761 13.3733 13.2333 13.2725C13.0926 13.1717 12.9099 13.1213 12.6852 13.1213H11.6016V18.325H10.0644V11.8739H12.6852C13.2039 11.8739 13.6522 11.9747 14.0302 12.1763C14.4103 12.3758 14.7033 12.6457 14.9091 12.9859C15.117 13.324 15.222 13.7009 15.2241 14.1167C15.222 14.5262 15.117 14.8947 14.9091 15.2223C14.7033 15.5499 14.4103 15.8093 14.0302 16.0004C13.6501 16.1915 13.1986 16.287 12.6758 16.287Z" fill="currentColor"/>
</svg>
